<?xml version="1.0" encoding="iso-8859-1"?>
<svg version="1.1" xmlns="http://www.w3.org/2000/svg" width="12.59" height="11.682" viewBox="0 -0.9 12.59 12.59">
  <defs>
    <style>
      .cls-aws-main-icon-1{fill:#fab342}.cls-aws-main-icon-2{fill:none}.cls-aws-main-icon-3{clip-path:url(#clip-path)}.cls-aws-main-icon-4{fill:#101010}.cls-aws-main-icon-5{clip-path:url(#clip-path-2)}
    </style>
    <clipPath id="clip-path">
      <path d="M0 0h12.59v11.682H0z" class="cls-aws-main-icon-2"/>
    </clipPath>
    <clipPath id="clip-path-2">
      <path id="Path_80" d="M0-64.6h12.59v2.854H0z" class="cls-aws-main-icon-1" data-name="Path 80"
            transform="translate(0 64.6)"/>
    </clipPath>
  </defs>
  <g id="Component_71_1" class="cls-aws-main-icon-3" data-name="Component 71 – 1">
    <path id="Path_77"
          d="M5.029 5.733a2.357 2.357 0 0 1 .4-1.379 2.441 2.441 0 0 1 1.086-.865 5.765 5.765 0 0 1 1.555-.383q.318-.034 1.028-.095v-.2a2.092 2.092 0 0 0-.162-1.005.871.871 0 0 0-.771-.352h-.099A1.285 1.285 0 0 0 7.4 1.7a.957.957 0 0 0-.361.586.3.3 0 0 1-.234.27l-1.344-.163c-.131-.032-.2-.1-.2-.212a.3.3 0 0 1 .015-.081A2.224 2.224 0 0 1 6.25.559 3.688 3.688 0 0 1 8.066 0h.293a2.942 2.942 0 0 1 2.078.69 2.357 2.357 0 0 1 .216.252 2.672 2.672 0 0 1 .158.239 1.22 1.22 0 0 1 .1.3c.032.131.054.225.072.275a1.909 1.909 0 0 1 .036.329q.014.25.014.3V5.21a1.664 1.664 0 0 0 .086.554 1.282 1.282 0 0 0 .171.361c.054.072.144.194.27.356a.371.371 0 0 1 .072.185.2.2 0 0 1-.095.162c-.644.559-1 .865-1.05.91a.321.321 0 0 1-.338.023q-.162-.142-.284-.27c-.081-.086-.14-.149-.176-.185a2.692 2.692 0 0 1-.171-.23q-.115-.169-.162-.23a2.9 2.9 0 0 1-1.284.888 3.575 3.575 0 0 1-.983.117A2.053 2.053 0 0 1 5.614 7.3a2.026 2.026 0 0 1-.585-1.567zm2.01-.233a1.107 1.107 0 0 0 .23.73.752.752 0 0 0 .613.275.5.5 0 0 0 .1-.014.5.5 0 0 1 .086-.014 1.175 1.175 0 0 0 .757-.631 1.927 1.927 0 0 0 .194-.487 2.476 2.476 0 0 0 .072-.428V4.1a4.21 4.21 0 0 0-1.025.1 1.266 1.266 0 0 0-1.027 1.3z"
          class="cls-aws-main-icon-4" data-name="Path 77" transform="translate(-1.74)"/>
    <g id="Group_177" data-name="Group 177" transform="translate(0 8.828)">
      <g id="Group_176" class="cls-aws-main-icon-5" data-name="Group 176">
        <g id="Group_174" data-name="Group 174" transform="translate(0 .241)">
          <path id="Path_78"
                d="M-.5-1.057q.057-.092.183-.011A12.194 12.194 0 0 0 5.914.592a12.317 12.317 0 0 0 4.429-.836l.166-.069q.109-.046.155-.069a.2.2 0 0 1 .269.069q.1.137-.063.252-.206.149-.526.343a8.579 8.579 0 0 1-2.2.9 9.258 9.258 0 0 1-2.369.32A9.167 9.167 0 0 1 2.4.883 9.3 9.3 0 0 1-.449-.873a.156.156 0 0 1-.069-.115.123.123 0 0 1 .018-.069"
                class="cls-aws-main-icon-1" data-name="Path 78" transform="translate(.518 1.105)"/>
        </g>
        <g id="Group_175" data-name="Group 175" transform="translate(10.228)">
          <path id="Path_79"
                d="M-.33-10.484a.358.358 0 0 1 .069-.092 1.8 1.8 0 0 1 .549-.263 3.732 3.732 0 0 1 .847-.126.684.684 0 0 1 .217.011q.515.046.618.172a.374.374 0 0 1 .046.206v.08a2.609 2.609 0 0 1-.217.944 2.2 2.2 0 0 1-.607.876.173.173 0 0 1-.1.046.1.1 0 0 1-.046-.011q-.069-.034-.034-.126a4.369 4.369 0 0 0 .423-1.385.294.294 0 0 0-.046-.183q-.115-.137-.641-.137-.195 0-.458.023-.286.034-.526.069a.133.133 0 0 1-.094-.02.037.037 0 0 1-.011-.046.087.087 0 0 1 .011-.034"
                class="cls-aws-main-icon-1" data-name="Path 79" transform="translate(.346 10.968)"/>
        </g>
      </g>
    </g>
  </g>
</svg>
