<svg width="20" height="20" viewBox="0 0 20 20" fill="none" xmlns="http://www.w3.org/2000/svg">
    <circle cx="10" cy="10" r="10" fill="#fff"/>
    <g clip-path="url(#72n2wa061a)">
        <path d="M7.342 9.866c-.012-.433.111-.86.353-1.22.24-.342.573-.608.96-.764.441-.177.904-.29 1.376-.34.188-.02.49-.047.91-.083v-.177a1.849 1.849 0 0 0-.144-.889.77.77 0 0 0-.682-.311h-.088a1.136 1.136 0 0 0-.589.217.846.846 0 0 0-.319.519.265.265 0 0 1-.207.238l-1.188-.144c-.116-.028-.177-.088-.177-.187a.265.265 0 0 1 .013-.072 1.967 1.967 0 0 1 .861-1.363 3.262 3.262 0 0 1 1.606-.494h.26a2.602 2.602 0 0 1 1.837.61 2.082 2.082 0 0 1 .331.434c.041.085.07.174.088.266.029.116.048.199.064.243.02.096.03.193.032.29.008.148.012.237.012.266v2.499c-.002.166.024.332.076.49.034.113.085.221.152.319.048.064.127.171.239.315a.328.328 0 0 1 .063.163.176.176 0 0 1-.084.144l-.928.804a.284.284 0 0 1-.3.02 3.87 3.87 0 0 1-.25-.238c-.072-.076-.124-.132-.156-.164a2.344 2.344 0 0 1-.151-.203 5.088 5.088 0 0 0-.144-.204c-.3.361-.692.633-1.135.786-.284.075-.576.11-.87.103a1.816 1.816 0 0 1-1.304-.487 1.791 1.791 0 0 1-.517-1.386zm1.777-.206a.979.979 0 0 0 .204.646.665.665 0 0 0 .542.243.44.44 0 0 0 .088-.012.435.435 0 0 1 .076-.013 1.04 1.04 0 0 0 .67-.558 1.71 1.71 0 0 0 .171-.43c.033-.125.054-.251.064-.38v-.734a3.723 3.723 0 0 0-.907.088 1.12 1.12 0 0 0-.908 1.15z" fill="#101010"/>
        <path d="M4.449 12.859c.033-.054.087-.058.161-.01a10.786 10.786 0 0 0 5.511 1.468 10.894 10.894 0 0 0 3.917-.74l.147-.06c.064-.027.11-.048.137-.061a.177.177 0 0 1 .238.06c.059.082.04.156-.056.224a7.023 7.023 0 0 1-.465.303 7.586 7.586 0 0 1-1.946.796 8.187 8.187 0 0 1-5.08-.264 8.223 8.223 0 0 1-2.52-1.553.138.138 0 0 1-.06-.102c-.001-.022.004-.043.016-.061z" fill="#FAB342"/>
        <path d="M13.492 13.031a.318.318 0 0 1 .062-.081 1.59 1.59 0 0 1 .485-.233 3.3 3.3 0 0 1 .75-.111.603.603 0 0 1 .191.01c.304.027.486.078.547.152.03.055.045.119.04.182v.07a2.308 2.308 0 0 1-.192.836 1.945 1.945 0 0 1-.536.774.153.153 0 0 1-.089.041.088.088 0 0 1-.04-.01c-.041-.02-.051-.057-.03-.111.191-.385.318-.799.373-1.225a.26.26 0 0 0-.04-.162c-.068-.08-.257-.121-.567-.121-.115 0-.25.007-.405.02-.169.02-.324.04-.465.061a.117.117 0 0 1-.084-.017.033.033 0 0 1-.01-.041.078.078 0 0 1 .01-.03" fill="#FAB342"/>
    </g>
    <defs>
        <clipPath id="72n2wa061a">
            <path fill="#fff" transform="translate(4 4)" d="M0 0h12v11.135H0z"/>
        </clipPath>
    </defs>
</svg>
