<svg xmlns="http://www.w3.org/2000/svg" width="19.5" height="15.693" viewBox="0 0 19.5 15.693">
    <path fill="#ea4335" d="M606.046 374.323h.062l-.037-.031 2.343-2.343v-.042a7.617 7.617 0 0 0-12.393 3.716.982.982 0 0 1 .126-.041 5.463 5.463 0 0 1 4.072-.808.077.077 0 0 1 .05-.013 4.226 4.226 0 0 1 5.786-.439z" transform="translate(-593.673 -370)"/>
    <path fill="#4285f4" d="M615.969 376.983a7.655 7.655 0 0 0-2.3-3.71l-2.379 2.379a4.228 4.228 0 0 1 1.552 3.354v.421a2.117 2.117 0 0 1 0 4.235h-4.235l-.006.006v3.36h-.018l.025.025h4.235a5.508 5.508 0 0 0 3.128-10.07z" transform="translate(-598.892 -371.36)"/>
    <path fill="#34a853" d="M599.005 394.266h4.233v-3.388h-4.233a2.078 2.078 0 0 1-.87-.19l-2.448 2.447-.006.026a5.479 5.479 0 0 0 3.324 1.105z" transform="translate(-593.53 -378.598)"/>
    <path fill="#fbbc05" d="M597.475 377.995a5.506 5.506 0 0 0-3.324 9.872l2.457-2.456a2.117 2.117 0 1 1 2.8-2.8l2.456-2.456a5.5 5.5 0 0 0-4.389-2.159z" transform="translate(-592 -373.323)"/>
</svg>
