<svg width="20" height="20" viewBox="0 0 20 20" fill="none" xmlns="http://www.w3.org/2000/svg">
    <circle cx="10" cy="10" r="10" fill="#fff"/>
    <g clip-path="url(#qhimvtg6wa)">
        <path d="M11.614 7.66h.038l-.022-.019L13.07 6.2v-.025A4.687 4.687 0 0 0 5.445 8.46a.606.606 0 0 1 .077-.025 3.362 3.362 0 0 1 2.506-.497.047.047 0 0 1 .031-.008 2.6 2.6 0 0 1 3.56-.27h-.005z" fill="#EA4335"/>
        <path d="M14.509 8.46a4.71 4.71 0 0 0-1.415-2.283L11.63 7.641a2.601 2.601 0 0 1 .955 2.064v.26a1.303 1.303 0 1 1 0 2.605H9.978l-.003.004v2.068h-.011l.015.015h2.606A3.39 3.39 0 0 0 14.51 8.46h-.001z" fill="#4285F4"/>
        <path d="M7.37 14.642h2.604v-2.085H7.37c-.185 0-.367-.04-.535-.117l-1.507 1.506-.003.016c.589.444 1.307.683 2.045.68z" fill="#34A853"/>
        <path d="M7.37 7.875a3.388 3.388 0 0 0-2.046 6.075l1.512-1.511a1.304 1.304 0 1 1 1.723-1.723l1.511-1.512a3.385 3.385 0 0 0-2.7-1.328z" fill="#FBBC05"/>
    </g>
    <defs>
        <clipPath id="qhimvtg6wa">
            <path fill="#fff" transform="translate(4 5)" d="M0 0h12v9.657H0z"/>
        </clipPath>
    </defs>
</svg>
