<svg width="595" height="36" viewBox="0 0 595 36" fill="none" xmlns="http://www.w3.org/2000/svg">
<rect width="595" height="36" fill="#F7F7F7"/>
<line x1="80.1477" y1="13.5" x2="80.1477" y2="22.5" stroke="#C3C3C3" stroke-linecap="round"/>
<g clip-path="url(#clip0_123_67)">
<path d="M32.4318 23.1121C30.2562 23.1121 29.1781 22.2434 29.1781 20.7303C29.1781 18.6635 31.2032 18.0716 33.6313 17.8377V17.4176C33.6313 16.3962 32.9806 16.1241 32.0482 16.1241C31.2809 16.1241 30.5379 16.3723 30.0522 16.6014L29.6394 15.5847C30.1591 15.3365 31.1158 14.988 32.3735 14.988C34.015 14.988 35.3164 15.6706 35.3164 17.6897V22.5441C34.6803 22.8783 33.675 23.1121 32.4318 23.1121ZM33.6313 18.6778C31.9316 18.883 30.8827 19.2458 30.8827 20.6682C30.8827 21.6849 31.5043 22.1193 32.5532 22.1193C32.966 22.1193 33.3642 22.0334 33.6313 21.9045V18.6778Z" fill="#6D6E71"/>
<path d="M38.2836 12.4678V23.0501H36.4771V14.6253C36.4771 14.6253 36.2343 12.4678 38.2836 12.4678Z" fill="#6D6E71"/>
<path d="M49.9824 23.1121C47.7485 23.1121 46.6704 21.3699 46.6704 19.0596C46.6704 16.7494 47.7485 14.988 49.9824 14.988C52.2163 14.988 53.2944 16.716 53.2944 19.0596C53.2944 21.4033 52.2163 23.1121 49.9824 23.1121ZM49.9824 16.105C48.71 16.105 48.4575 17.5465 48.4575 19.0405C48.4575 20.5346 48.7392 21.9045 49.9824 21.9045C51.2256 21.9045 51.5073 20.525 51.5073 19.0405C51.5073 17.5561 51.2693 16.105 49.9824 16.105Z" fill="#6D6E71"/>
<path d="M55.9556 23.0978C55.0232 23.0978 54.2268 22.8496 53.7509 22.5298L54.2219 21.3985C54.5181 21.6324 55.0669 21.8472 55.7176 21.8472C56.4558 21.8472 56.9463 21.3842 56.9463 20.7446C56.9463 20.105 56.5918 19.7565 55.7759 19.451C54.2656 18.883 53.9597 18.0716 53.9597 17.2553C53.9597 16.0047 54.9649 14.988 56.4898 14.988C57.3785 14.988 58.0438 15.2076 58.5586 15.5417L58.1167 16.5775C57.8787 16.3866 57.4076 16.1384 56.8443 16.1384C56.1062 16.1384 55.7079 16.6205 55.7079 17.1694C55.7079 17.809 56.1936 18.1288 56.888 18.4057C58.442 19.0167 58.7965 19.7995 58.7965 20.716C58.7965 21.9952 57.7039 23.0978 55.9556 23.0978Z" fill="#44ADE2"/>
<path d="M61.1178 19.6993C61.2635 21.1503 61.9774 21.8759 63.2934 21.8759C64.2113 21.8759 64.8766 21.6563 65.3039 21.4415L65.7313 22.5632C65.168 22.8687 64.3133 23.1121 63.0992 23.1121C60.8362 23.1121 59.4036 21.6754 59.4036 19.031C59.4036 16.3866 60.7196 14.988 62.8078 14.988C64.896 14.988 66.0761 16.3675 66.0032 18.9976L61.1227 19.6993H61.1178ZM62.7447 16.0763C61.6957 16.0763 60.9721 16.9212 61.0158 18.7971L64.3133 18.3007C64.3133 16.716 63.7354 16.0763 62.7447 16.0763Z" fill="#44ADE2"/>
<path d="M69.8154 23.1121C67.9943 23.1121 66.6637 21.6133 66.6637 19.031C66.6637 16.4487 68.0526 14.988 69.83 14.988C70.8061 14.988 71.384 15.2792 71.6802 15.5274L71.2966 16.5298C71.0732 16.3532 70.7478 16.1957 70.2331 16.1957C69.0044 16.1957 68.4897 17.284 68.4897 19.0024C68.4897 20.7207 69.0967 21.8377 70.2039 21.8377C70.6896 21.8377 71.0343 21.6945 71.282 21.4892L71.6948 22.5775C71.3694 22.8687 70.777 23.1121 69.8154 23.1121Z" fill="#44ADE2"/>
<path fill-rule="evenodd" clip-rule="evenodd" d="M23.2243 8C20.3251 8 17.9747 10.3103 17.9747 13.1599C17.9747 13.8091 18.1009 14.4344 18.3195 15.0024C18.0038 11.494 21.8257 9.26969 23.4671 9.24105V15.4033H22.0588V14.3819H20.4271C20.3785 14.3819 20.5728 13.6993 20.6505 13.6993H22.0588V11.074C20.5388 11.6325 17.1928 15.494 20.9224 17.7995C21.6169 18.1337 22.3987 18.3246 23.2243 18.3246C26.1235 18.3246 28.4739 16.0143 28.4739 13.1599C28.4739 10.3055 26.1235 8 23.2243 8Z" fill="#44ADE2"/>
<path d="M45.7574 23.0024V15.6611C45.2524 15.3413 44.3394 15.0931 43.169 15.0931C40.5952 15.0931 39.3083 16.778 39.3083 19.3222C39.3083 21.6945 40.6098 23.1456 42.5183 23.1456C43.1982 23.1456 43.7032 23.031 44.014 22.8544V23.1885C44.014 23.1885 44.014 23.2697 44.0092 23.284C43.9218 24.1671 43.3924 24.7542 42.1881 24.7542C41.4499 24.7542 40.7409 24.5346 40.2795 24.2864L39.7745 25.4463C40.3524 25.7804 41.3576 26 42.494 26C44.3345 26 45.5729 25.074 45.7429 23.2697C45.7429 23.222 45.7526 23.0024 45.7526 23.0024H45.7574ZM44.014 21.8663C43.7615 22.0143 43.407 22.1146 42.9942 22.1146C41.6636 22.1146 41.1003 21.1408 41.1003 19.2363C41.1003 17.3317 41.6782 16.1384 43.0816 16.1384C43.4653 16.1384 43.7761 16.1814 44.014 16.315V21.8663Z" fill="#6D6E71"/>
</g>
<path d="M88.251 22V12.0469H89.5771V22H88.251ZM97.4111 20.3867C97.4111 20.6465 97.4339 20.9154 97.4795 21.1934C97.5251 21.4668 97.5889 21.6992 97.6709 21.8906V22H96.3379C96.2604 21.8223 96.2012 21.5648 96.1602 21.2275C95.9049 21.501 95.5973 21.722 95.2373 21.8906C94.8818 22.0547 94.4899 22.1367 94.0615 22.1367C93.5693 22.1367 93.1318 22.041 92.749 21.8496C92.3708 21.6536 92.0768 21.3893 91.8672 21.0566C91.6621 20.724 91.5596 20.3548 91.5596 19.9492C91.5596 19.4251 91.694 18.9808 91.9629 18.6162C92.2363 18.2516 92.6214 17.9782 93.1182 17.7959C93.6195 17.609 94.2096 17.5156 94.8887 17.5156H96.1328V16.9277C96.1328 16.4766 95.9984 16.1234 95.7295 15.8682C95.4652 15.6084 95.0824 15.4785 94.5811 15.4785C94.2757 15.4785 94.0023 15.5332 93.7607 15.6426C93.5192 15.7474 93.3301 15.891 93.1934 16.0732C93.0612 16.251 92.9951 16.4447 92.9951 16.6543H91.7168C91.7168 16.2943 91.8398 15.9456 92.0859 15.6084C92.332 15.2712 92.6784 14.9977 93.125 14.7881C93.5716 14.5739 94.082 14.4668 94.6562 14.4668C95.2031 14.4668 95.6816 14.5602 96.0918 14.7471C96.5065 14.9294 96.8301 15.2074 97.0625 15.5811C97.2949 15.9502 97.4111 16.4036 97.4111 16.9414V20.3867ZM94.2461 21.043C94.5378 21.043 94.8089 20.9928 95.0596 20.8926C95.3148 20.7878 95.5335 20.651 95.7158 20.4824C95.8981 20.3138 96.0371 20.1315 96.1328 19.9355V18.4043H95.0938C94.3646 18.4043 93.8063 18.5205 93.4189 18.7529C93.0316 18.9808 92.8379 19.3203 92.8379 19.7715C92.8379 20.013 92.8926 20.2295 93.002 20.4209C93.1113 20.6123 93.2708 20.765 93.4805 20.8789C93.6901 20.9883 93.9453 21.043 94.2461 21.043ZM106.927 18.8418C106.854 19.4889 106.669 20.0609 106.373 20.5576C106.077 21.0498 105.658 21.4372 105.115 21.7197C104.577 21.9977 103.921 22.1367 103.146 22.1367C102.376 22.1367 101.697 21.9476 101.109 21.5693C100.521 21.1865 100.066 20.6465 99.7422 19.9492C99.4186 19.252 99.2568 18.4453 99.2568 17.5293V16.5244C99.2568 15.6038 99.4186 14.7949 99.7422 14.0977C100.07 13.4004 100.537 12.8626 101.144 12.4844C101.75 12.1016 102.458 11.9102 103.27 11.9102C104.003 11.9102 104.632 12.0492 105.156 12.3271C105.68 12.6006 106.088 12.988 106.38 13.4893C106.676 13.986 106.858 14.5693 106.927 15.2393H105.601C105.496 14.4964 105.263 13.9359 104.903 13.5576C104.543 13.1748 103.999 12.9834 103.27 12.9834C102.691 12.9834 102.201 13.1292 101.8 13.4209C101.399 13.7126 101.096 14.1227 100.891 14.6514C100.69 15.18 100.59 15.7998 100.59 16.5107V17.5293C100.59 18.2038 100.683 18.8076 100.87 19.3408C101.057 19.874 101.342 20.2956 101.725 20.6055C102.107 20.9154 102.581 21.0703 103.146 21.0703C103.689 21.0703 104.126 20.986 104.459 20.8174C104.796 20.6442 105.049 20.3958 105.218 20.0723C105.391 19.7487 105.519 19.3385 105.601 18.8418H106.927ZM119.519 18.8418C119.446 19.4889 119.261 20.0609 118.965 20.5576C118.669 21.0498 118.249 21.4372 117.707 21.7197C117.169 21.9977 116.513 22.1367 115.738 22.1367C114.968 22.1367 114.289 21.9476 113.701 21.5693C113.113 21.1865 112.658 20.6465 112.334 19.9492C112.01 19.252 111.849 18.4453 111.849 17.5293V16.5244C111.849 15.6038 112.01 14.7949 112.334 14.0977C112.662 13.4004 113.129 12.8626 113.735 12.4844C114.341 12.1016 115.05 11.9102 115.861 11.9102C116.595 11.9102 117.224 12.0492 117.748 12.3271C118.272 12.6006 118.68 12.988 118.972 13.4893C119.268 13.986 119.45 14.5693 119.519 15.2393H118.192C118.088 14.4964 117.855 13.9359 117.495 13.5576C117.135 13.1748 116.59 12.9834 115.861 12.9834C115.283 12.9834 114.793 13.1292 114.392 13.4209C113.991 13.7126 113.688 14.1227 113.482 14.6514C113.282 15.18 113.182 15.7998 113.182 16.5107V17.5293C113.182 18.2038 113.275 18.8076 113.462 19.3408C113.649 19.874 113.934 20.2956 114.316 20.6055C114.699 20.9154 115.173 21.0703 115.738 21.0703C116.281 21.0703 116.718 20.986 117.051 20.8174C117.388 20.6442 117.641 20.3958 117.81 20.0723C117.983 19.7487 118.11 19.3385 118.192 18.8418H119.519ZM120.783 18.2266C120.783 17.5111 120.92 16.8685 121.193 16.2988C121.467 15.7292 121.856 15.2826 122.362 14.959C122.873 14.6309 123.465 14.4668 124.14 14.4668C124.823 14.4668 125.42 14.6309 125.931 14.959C126.441 15.2826 126.833 15.7292 127.106 16.2988C127.38 16.8685 127.517 17.5111 127.517 18.2266V18.3838C127.517 19.0993 127.38 19.7419 127.106 20.3115C126.833 20.8766 126.441 21.3232 125.931 21.6514C125.425 21.9749 124.832 22.1367 124.153 22.1367C123.474 22.1367 122.88 21.9749 122.369 21.6514C121.863 21.3232 121.471 20.8766 121.193 20.3115C120.92 19.7419 120.783 19.0993 120.783 18.3838V18.2266ZM122.062 18.3838C122.062 18.8851 122.139 19.3431 122.294 19.7578C122.453 20.1725 122.69 20.5029 123.005 20.749C123.319 20.9906 123.702 21.1113 124.153 21.1113C124.6 21.1113 124.98 20.9906 125.295 20.749C125.609 20.5029 125.844 20.1725 125.999 19.7578C126.159 19.3431 126.238 18.8851 126.238 18.3838V18.2266C126.238 17.7253 126.159 17.2673 125.999 16.8525C125.84 16.4378 125.603 16.1074 125.288 15.8613C124.974 15.6152 124.591 15.4922 124.14 15.4922C123.693 15.4922 123.312 15.6152 122.998 15.8613C122.688 16.1074 122.453 16.4378 122.294 16.8525C122.139 17.2673 122.062 17.7253 122.062 18.2266V18.3838ZM132.562 14.4668C134.143 14.4668 134.934 15.3623 134.934 17.1533V22H133.655V17.1396C133.655 16.5745 133.532 16.1644 133.286 15.9092C133.045 15.654 132.678 15.5264 132.186 15.5264C131.794 15.5264 131.44 15.6335 131.126 15.8477C130.816 16.0618 130.57 16.349 130.388 16.709V22H129.109V14.6035H130.319L130.36 15.5127C130.629 15.18 130.951 14.9225 131.324 14.7402C131.698 14.5579 132.11 14.4668 132.562 14.4668ZM140.3 14.4668C141.881 14.4668 142.672 15.3623 142.672 17.1533V22H141.394V17.1396C141.394 16.5745 141.271 16.1644 141.024 15.9092C140.783 15.654 140.416 15.5264 139.924 15.5264C139.532 15.5264 139.179 15.6335 138.864 15.8477C138.554 16.0618 138.308 16.349 138.126 16.709V22H136.848V14.6035H138.058L138.099 15.5127C138.368 15.18 138.689 14.9225 139.062 14.7402C139.436 14.5579 139.849 14.4668 140.3 14.4668ZM150.547 18.6504H145.543C145.557 19.1107 145.652 19.5277 145.83 19.9014C146.008 20.2751 146.258 20.5713 146.582 20.79C146.91 21.0042 147.293 21.1113 147.73 21.1113C148.159 21.1113 148.528 21.0247 148.838 20.8516C149.152 20.6784 149.433 20.43 149.679 20.1064L150.451 20.708C150.178 21.1273 149.813 21.4714 149.357 21.7402C148.902 22.0046 148.337 22.1367 147.662 22.1367C146.988 22.1367 146.393 21.984 145.878 21.6787C145.363 21.3734 144.964 20.9495 144.682 20.4072C144.404 19.8649 144.265 19.2497 144.265 18.5615V18.2676C144.265 17.4974 144.415 16.8252 144.716 16.251C145.017 15.6722 145.413 15.2301 145.905 14.9248C146.402 14.6195 146.933 14.4668 147.498 14.4668C148.186 14.4668 148.756 14.6217 149.207 14.9316C149.663 15.237 150 15.6608 150.219 16.2031C150.438 16.7454 150.547 17.3721 150.547 18.083V18.6504ZM149.269 17.5293C149.232 16.9505 149.075 16.4674 148.797 16.0801C148.523 15.6882 148.09 15.4922 147.498 15.4922C146.988 15.4922 146.562 15.679 146.22 16.0527C145.882 16.4219 145.671 16.946 145.584 17.625H149.269V17.5293ZM157.943 19.6621C157.921 20.0951 157.772 20.5029 157.499 20.8857C157.226 21.264 156.866 21.5671 156.419 21.7949C155.977 22.0228 155.501 22.1367 154.99 22.1367C154.275 22.1367 153.669 21.9727 153.172 21.6445C152.68 21.3118 152.311 20.8675 152.064 20.3115C151.818 19.751 151.695 19.1289 151.695 18.4453V18.1582C151.695 17.4746 151.818 16.8548 152.064 16.2988C152.311 15.7383 152.68 15.2939 153.172 14.9658C153.669 14.6331 154.275 14.4668 154.99 14.4668C155.555 14.4668 156.057 14.583 156.494 14.8154C156.936 15.0479 157.283 15.3691 157.533 15.7793C157.784 16.1849 157.921 16.6406 157.943 17.1465H156.733C156.711 16.8411 156.624 16.5632 156.474 16.3125C156.323 16.0573 156.12 15.8568 155.865 15.7109C155.61 15.5651 155.318 15.4922 154.99 15.4922C154.503 15.4922 154.108 15.6198 153.808 15.875C153.507 16.1257 153.293 16.4515 153.165 16.8525C153.037 17.249 152.974 17.6842 152.974 18.1582V18.4453C152.974 19.2018 153.129 19.8353 153.438 20.3457C153.753 20.8561 154.27 21.1113 154.99 21.1113C155.286 21.1113 155.562 21.0498 155.817 20.9268C156.077 20.7992 156.289 20.626 156.453 20.4072C156.617 20.1839 156.711 19.9355 156.733 19.6621H157.943ZM162.503 22C162.211 22.0911 161.885 22.1367 161.525 22.1367C161.01 22.1367 160.596 21.9818 160.281 21.6719C159.971 21.362 159.816 20.8584 159.816 20.1611V15.5674H158.47V14.6035H159.816V12.8057H161.095V14.6035H162.476V15.5674H161.095V20.168C161.095 20.5189 161.168 20.7559 161.313 20.8789C161.459 20.9974 161.658 21.0566 161.908 21.0566C162.004 21.0566 162.109 21.0498 162.223 21.0361C162.337 21.0179 162.428 20.9997 162.496 20.9814L162.503 22ZM164.704 11.9102C164.941 11.9102 165.126 11.9785 165.258 12.1152C165.395 12.252 165.463 12.4251 165.463 12.6348C165.463 12.8398 165.395 13.0107 165.258 13.1475C165.126 13.2796 164.941 13.3457 164.704 13.3457C164.467 13.3457 164.283 13.2796 164.15 13.1475C164.023 13.0107 163.959 12.8398 163.959 12.6348C163.959 12.4251 164.023 12.252 164.15 12.1152C164.283 11.9785 164.467 11.9102 164.704 11.9102ZM164.055 22V14.6035H165.333V22H164.055ZM172.921 14.6035L170.269 22H169.407H169.298L166.618 14.6035H167.924L169.797 20.2705L171.615 14.6035H172.921ZM174.903 11.9102C175.14 11.9102 175.325 11.9785 175.457 12.1152C175.594 12.252 175.662 12.4251 175.662 12.6348C175.662 12.8398 175.594 13.0107 175.457 13.1475C175.325 13.2796 175.14 13.3457 174.903 13.3457C174.666 13.3457 174.482 13.2796 174.35 13.1475C174.222 13.0107 174.158 12.8398 174.158 12.6348C174.158 12.4251 174.222 12.252 174.35 12.1152C174.482 11.9785 174.666 11.9102 174.903 11.9102ZM174.254 22V14.6035H175.532V22H174.254ZM180.687 22C180.395 22.0911 180.069 22.1367 179.709 22.1367C179.194 22.1367 178.779 21.9818 178.465 21.6719C178.155 21.362 178 20.8584 178 20.1611V15.5674H176.653V14.6035H178V12.8057H179.278V14.6035H180.659V15.5674H179.278V20.168C179.278 20.5189 179.351 20.7559 179.497 20.8789C179.643 20.9974 179.841 21.0566 180.092 21.0566C180.188 21.0566 180.292 21.0498 180.406 21.0361C180.52 21.0179 180.611 20.9997 180.68 20.9814L180.687 22ZM187.625 14.6035L184.658 23.1416C184.476 23.6383 184.212 24.069 183.865 24.4336C183.523 24.8027 183.056 24.9873 182.464 24.9873C182.368 24.9873 182.243 24.9736 182.088 24.9463C181.938 24.9235 181.824 24.9007 181.746 24.8779V23.8594C181.796 23.8685 181.853 23.8753 181.917 23.8799C181.981 23.889 182.038 23.8936 182.088 23.8936C182.521 23.8936 182.856 23.8024 183.093 23.6201C183.334 23.4424 183.53 23.1279 183.681 22.6768L183.961 21.918L181.322 14.6035H182.717L184.549 20.1406L186.265 14.6035H187.625ZM199.656 21.918V22H198.234L196.074 17.9668H193.757V22H192.431V12.0469H195.726C196.851 12.0469 197.715 12.3044 198.316 12.8193C198.918 13.3298 199.219 14.068 199.219 15.0342C199.219 15.6494 199.05 16.1895 198.713 16.6543C198.38 17.1146 197.915 17.4609 197.318 17.6934L199.656 21.918ZM195.76 16.9004C196.215 16.9004 196.603 16.8184 196.922 16.6543C197.241 16.4902 197.48 16.2669 197.64 15.9844C197.804 15.7018 197.886 15.3851 197.886 15.0342C197.886 14.4326 197.708 13.9632 197.353 13.626C196.997 13.2887 196.455 13.1201 195.726 13.1201H193.757V16.9004H195.76ZM201.618 11.9102C201.855 11.9102 202.04 11.9785 202.172 12.1152C202.309 12.252 202.377 12.4251 202.377 12.6348C202.377 12.8398 202.309 13.0107 202.172 13.1475C202.04 13.2796 201.855 13.3457 201.618 13.3457C201.381 13.3457 201.197 13.2796 201.064 13.1475C200.937 13.0107 200.873 12.8398 200.873 12.6348C200.873 12.4251 200.937 12.252 201.064 12.1152C201.197 11.9785 201.381 11.9102 201.618 11.9102ZM200.969 22V14.6035H202.247V22H200.969ZM206.875 18.7529C205.995 18.5706 205.33 18.3154 204.879 17.9873C204.432 17.6592 204.209 17.2057 204.209 16.627C204.209 16.235 204.323 15.875 204.551 15.5469C204.779 15.2188 205.1 14.9567 205.515 14.7607C205.934 14.5648 206.412 14.4668 206.95 14.4668C207.524 14.4668 208.026 14.5693 208.454 14.7744C208.882 14.9795 209.208 15.2575 209.432 15.6084C209.66 15.9548 209.773 16.3421 209.773 16.7705H208.495C208.495 16.5609 208.434 16.3581 208.311 16.1621C208.188 15.9661 208.007 15.8066 207.771 15.6836C207.538 15.556 207.265 15.4922 206.95 15.4922C206.618 15.4922 206.342 15.5446 206.123 15.6494C205.904 15.7497 205.743 15.8841 205.638 16.0527C205.537 16.2168 205.487 16.3945 205.487 16.5859C205.487 16.7819 205.533 16.946 205.624 17.0781C205.72 17.2057 205.888 17.3219 206.13 17.4268C206.376 17.5316 206.729 17.6341 207.189 17.7344C207.809 17.8757 208.313 18.042 208.7 18.2334C209.088 18.4248 209.375 18.6595 209.562 18.9375C209.753 19.2155 209.849 19.5527 209.849 19.9492C209.849 20.3776 209.73 20.7581 209.493 21.0908C209.256 21.4189 208.921 21.6764 208.488 21.8633C208.055 22.0456 207.554 22.1367 206.984 22.1367C206.355 22.1367 205.811 22.0251 205.351 21.8018C204.895 21.5739 204.549 21.2754 204.312 20.9062C204.075 20.5371 203.956 20.1429 203.956 19.7236H205.234C205.253 20.0518 205.348 20.3206 205.521 20.5303C205.695 20.7354 205.909 20.8835 206.164 20.9746C206.424 21.0658 206.697 21.1113 206.984 21.1113C207.317 21.1113 207.602 21.0658 207.839 20.9746C208.08 20.8789 208.263 20.7513 208.386 20.5918C208.509 20.4277 208.57 20.2432 208.57 20.0381C208.57 19.833 208.527 19.6553 208.44 19.5049C208.354 19.3545 208.188 19.2155 207.941 19.0879C207.695 18.9603 207.34 18.8486 206.875 18.7529ZM213.574 18.5684L212.781 19.3887V22H211.503V11.5H212.781V17.8438L213.458 17.0439L215.741 14.6035H217.293L214.415 17.6865L217.635 22H216.131L213.574 18.5684ZM227.772 19.3955H223.623L222.68 22H221.312L225.113 12.0469H225.988H226.275L230.083 22H228.723L227.772 19.3955ZM227.383 18.3223L225.694 13.6738L224.013 18.3223H227.383ZM234.376 14.4668C235.957 14.4668 236.748 15.3623 236.748 17.1533V22H235.47V17.1396C235.47 16.5745 235.347 16.1644 235.101 15.9092C234.859 15.654 234.492 15.5264 234 15.5264C233.608 15.5264 233.255 15.6335 232.94 15.8477C232.631 16.0618 232.384 16.349 232.202 16.709V22H230.924V14.6035H232.134L232.175 15.5127C232.444 15.18 232.765 14.9225 233.139 14.7402C233.512 14.5579 233.925 14.4668 234.376 14.4668ZM244.302 20.3867C244.302 20.6465 244.325 20.9154 244.37 21.1934C244.416 21.4668 244.479 21.6992 244.562 21.8906V22H243.229C243.151 21.8223 243.092 21.5648 243.051 21.2275C242.796 21.501 242.488 21.722 242.128 21.8906C241.772 22.0547 241.381 22.1367 240.952 22.1367C240.46 22.1367 240.022 22.041 239.64 21.8496C239.261 21.6536 238.967 21.3893 238.758 21.0566C238.553 20.724 238.45 20.3548 238.45 19.9492C238.45 19.4251 238.585 18.9808 238.854 18.6162C239.127 18.2516 239.512 17.9782 240.009 17.7959C240.51 17.609 241.1 17.5156 241.779 17.5156H243.023V16.9277C243.023 16.4766 242.889 16.1234 242.62 15.8682C242.356 15.6084 241.973 15.4785 241.472 15.4785C241.166 15.4785 240.893 15.5332 240.651 15.6426C240.41 15.7474 240.221 15.891 240.084 16.0732C239.952 16.251 239.886 16.4447 239.886 16.6543H238.607C238.607 16.2943 238.73 15.9456 238.977 15.6084C239.223 15.2712 239.569 14.9977 240.016 14.7881C240.462 14.5739 240.973 14.4668 241.547 14.4668C242.094 14.4668 242.572 14.5602 242.982 14.7471C243.397 14.9294 243.721 15.2074 243.953 15.5811C244.186 15.9502 244.302 16.4036 244.302 16.9414V20.3867ZM241.137 21.043C241.428 21.043 241.7 20.9928 241.95 20.8926C242.205 20.7878 242.424 20.651 242.606 20.4824C242.789 20.3138 242.928 20.1315 243.023 19.9355V18.4043H241.984C241.255 18.4043 240.697 18.5205 240.31 18.7529C239.922 18.9808 239.729 19.3203 239.729 19.7715C239.729 20.013 239.783 20.2295 239.893 20.4209C240.002 20.6123 240.161 20.765 240.371 20.8789C240.581 20.9883 240.836 21.043 241.137 21.043ZM246.4 22V11.5H247.679V22H246.4ZM255.191 14.6035L252.225 23.1416C252.042 23.6383 251.778 24.069 251.432 24.4336C251.09 24.8027 250.623 24.9873 250.03 24.9873C249.935 24.9873 249.809 24.9736 249.654 24.9463C249.504 24.9235 249.39 24.9007 249.312 24.8779V23.8594C249.363 23.8685 249.42 23.8753 249.483 23.8799C249.547 23.889 249.604 23.8936 249.654 23.8936C250.087 23.8936 250.422 23.8024 250.659 23.6201C250.901 23.4424 251.097 23.1279 251.247 22.6768L251.527 21.918L248.889 14.6035H250.283L252.115 20.1406L253.831 14.6035H255.191ZM258.938 18.7529C258.058 18.5706 257.393 18.3154 256.941 17.9873C256.495 17.6592 256.271 17.2057 256.271 16.627C256.271 16.235 256.385 15.875 256.613 15.5469C256.841 15.2188 257.162 14.9567 257.577 14.7607C257.996 14.5648 258.475 14.4668 259.013 14.4668C259.587 14.4668 260.088 14.5693 260.517 14.7744C260.945 14.9795 261.271 15.2575 261.494 15.6084C261.722 15.9548 261.836 16.3421 261.836 16.7705H260.558C260.558 16.5609 260.496 16.3581 260.373 16.1621C260.25 15.9661 260.07 15.8066 259.833 15.6836C259.601 15.556 259.327 15.4922 259.013 15.4922C258.68 15.4922 258.404 15.5446 258.186 15.6494C257.967 15.7497 257.805 15.8841 257.7 16.0527C257.6 16.2168 257.55 16.3945 257.55 16.5859C257.55 16.7819 257.595 16.946 257.687 17.0781C257.782 17.2057 257.951 17.3219 258.192 17.4268C258.438 17.5316 258.792 17.6341 259.252 17.7344C259.872 17.8757 260.375 18.042 260.763 18.2334C261.15 18.4248 261.437 18.6595 261.624 18.9375C261.815 19.2155 261.911 19.5527 261.911 19.9492C261.911 20.3776 261.793 20.7581 261.556 21.0908C261.319 21.4189 260.984 21.6764 260.551 21.8633C260.118 22.0456 259.617 22.1367 259.047 22.1367C258.418 22.1367 257.873 22.0251 257.413 21.8018C256.957 21.5739 256.611 21.2754 256.374 20.9062C256.137 20.5371 256.019 20.1429 256.019 19.7236H257.297C257.315 20.0518 257.411 20.3206 257.584 20.5303C257.757 20.7354 257.971 20.8835 258.227 20.9746C258.486 21.0658 258.76 21.1113 259.047 21.1113C259.38 21.1113 259.664 21.0658 259.901 20.9746C260.143 20.8789 260.325 20.7513 260.448 20.5918C260.571 20.4277 260.633 20.2432 260.633 20.0381C260.633 19.833 260.59 19.6553 260.503 19.5049C260.416 19.3545 260.25 19.2155 260.004 19.0879C259.758 18.9603 259.402 18.8486 258.938 18.7529ZM264.317 11.9102C264.554 11.9102 264.739 11.9785 264.871 12.1152C265.008 12.252 265.076 12.4251 265.076 12.6348C265.076 12.8398 265.008 13.0107 264.871 13.1475C264.739 13.2796 264.554 13.3457 264.317 13.3457C264.08 13.3457 263.896 13.2796 263.764 13.1475C263.636 13.0107 263.572 12.8398 263.572 12.6348C263.572 12.4251 263.636 12.252 263.764 12.1152C263.896 11.9785 264.08 11.9102 264.317 11.9102ZM263.668 22V14.6035H264.946V22H263.668ZM269.574 18.7529C268.695 18.5706 268.029 18.3154 267.578 17.9873C267.132 17.6592 266.908 17.2057 266.908 16.627C266.908 16.235 267.022 15.875 267.25 15.5469C267.478 15.2188 267.799 14.9567 268.214 14.7607C268.633 14.5648 269.112 14.4668 269.649 14.4668C270.224 14.4668 270.725 14.5693 271.153 14.7744C271.582 14.9795 271.908 15.2575 272.131 15.6084C272.359 15.9548 272.473 16.3421 272.473 16.7705H271.194C271.194 16.5609 271.133 16.3581 271.01 16.1621C270.887 15.9661 270.707 15.8066 270.47 15.6836C270.237 15.556 269.964 15.4922 269.649 15.4922C269.317 15.4922 269.041 15.5446 268.822 15.6494C268.604 15.7497 268.442 15.8841 268.337 16.0527C268.237 16.2168 268.187 16.3945 268.187 16.5859C268.187 16.7819 268.232 16.946 268.323 17.0781C268.419 17.2057 268.588 17.3219 268.829 17.4268C269.075 17.5316 269.428 17.6341 269.889 17.7344C270.508 17.8757 271.012 18.042 271.399 18.2334C271.787 18.4248 272.074 18.6595 272.261 18.9375C272.452 19.2155 272.548 19.5527 272.548 19.9492C272.548 20.3776 272.429 20.7581 272.192 21.0908C271.955 21.4189 271.62 21.6764 271.188 21.8633C270.755 22.0456 270.253 22.1367 269.684 22.1367C269.055 22.1367 268.51 22.0251 268.05 21.8018C267.594 21.5739 267.248 21.2754 267.011 20.9062C266.774 20.5371 266.655 20.1429 266.655 19.7236H267.934C267.952 20.0518 268.048 20.3206 268.221 20.5303C268.394 20.7354 268.608 20.8835 268.863 20.9746C269.123 21.0658 269.396 21.1113 269.684 21.1113C270.016 21.1113 270.301 21.0658 270.538 20.9746C270.78 20.8789 270.962 20.7513 271.085 20.5918C271.208 20.4277 271.27 20.2432 271.27 20.0381C271.27 19.833 271.226 19.6553 271.14 19.5049C271.053 19.3545 270.887 19.2155 270.641 19.0879C270.395 18.9603 270.039 18.8486 269.574 18.7529Z" fill="#505050"/>
<defs>
<clipPath id="clip0_123_67">
<rect width="53.7153" height="18" fill="white" transform="translate(17.9747 8)"/>
</clipPath>
</defs>
</svg>
