<svg width="595" height="36" viewBox="0 0 595 36" fill="none" xmlns="http://www.w3.org/2000/svg">
<rect width="595" height="36" fill="#F7F7F7"/>
<line x1="80.1477" y1="13.5" x2="80.1477" y2="22.5" stroke="#C3C3C3" stroke-linecap="round"/>
<g clip-path="url(#clip0_123_67)">
<path d="M32.4318 23.1121C30.2562 23.1121 29.1781 22.2434 29.1781 20.7303C29.1781 18.6635 31.2032 18.0716 33.6313 17.8377V17.4176C33.6313 16.3962 32.9806 16.1241 32.0482 16.1241C31.2809 16.1241 30.5379 16.3723 30.0522 16.6014L29.6394 15.5847C30.1591 15.3365 31.1158 14.988 32.3735 14.988C34.015 14.988 35.3164 15.6706 35.3164 17.6897V22.5441C34.6803 22.8783 33.675 23.1121 32.4318 23.1121M33.6313 18.6778C31.9316 18.883 30.8827 19.2458 30.8827 20.6682C30.8827 21.6849 31.5043 22.1193 32.5532 22.1193C32.966 22.1193 33.3642 22.0334 33.6313 21.9045V18.6778V18.6778Z" fill="#6D6E71"/>
<path d="M38.2836 12.4678V23.0501H36.4771V14.6253C36.4771 14.6253 36.2343 12.4678 38.2836 12.4678" fill="#6D6E71"/>
<path d="M49.9824 23.1121C47.7485 23.1121 46.6704 21.3699 46.6704 19.0596C46.6704 16.7494 47.7485 14.988 49.9824 14.988C52.2163 14.988 53.2944 16.716 53.2944 19.0596C53.2944 21.4033 52.2163 23.1121 49.9824 23.1121M49.9824 16.105C48.71 16.105 48.4575 17.5465 48.4575 19.0405C48.4575 20.5346 48.7392 21.9045 49.9824 21.9045C51.2256 21.9045 51.5073 20.525 51.5073 19.0405C51.5073 17.5561 51.2693 16.105 49.9824 16.105Z" fill="#6D6E71"/>
<path d="M55.9556 23.0978C55.0232 23.0978 54.2268 22.8496 53.7509 22.5298L54.2219 21.3985C54.5181 21.6324 55.0669 21.8472 55.7176 21.8472C56.4558 21.8472 56.9463 21.3842 56.9463 20.7446C56.9463 20.105 56.5918 19.7565 55.7759 19.451C54.2656 18.883 53.9597 18.0716 53.9597 17.2553C53.9597 16.0047 54.9649 14.988 56.4898 14.988C57.3785 14.988 58.0438 15.2076 58.5586 15.5417L58.1167 16.5775C57.8787 16.3866 57.4076 16.1384 56.8443 16.1384C56.1062 16.1384 55.7079 16.6205 55.7079 17.1694C55.7079 17.809 56.1936 18.1288 56.888 18.4057C58.442 19.0167 58.7965 19.7995 58.7965 20.716C58.7965 21.9952 57.7039 23.0978 55.9556 23.0978" fill="#44ADE2"/>
<path d="M61.1178 19.6993C61.2635 21.1503 61.9774 21.8759 63.2934 21.8759C64.2113 21.8759 64.8766 21.6563 65.3039 21.4415L65.7313 22.5632C65.168 22.8687 64.3133 23.1121 63.0992 23.1121C60.8362 23.1121 59.4036 21.6754 59.4036 19.031C59.4036 16.3866 60.7196 14.988 62.8078 14.988C64.896 14.988 66.0761 16.3675 66.0032 18.9976L61.1227 19.6993H61.1178ZM62.7447 16.0763C61.6957 16.0763 60.9721 16.9212 61.0158 18.7971L64.3133 18.3007C64.3133 16.716 63.7354 16.0763 62.7447 16.0763Z" fill="#44ADE2"/>
<path d="M69.8154 23.1121C67.9943 23.1121 66.6637 21.6133 66.6637 19.031C66.6637 16.4487 68.0526 14.988 69.83 14.988C70.8061 14.988 71.384 15.2792 71.6802 15.5274L71.2966 16.5298C71.0732 16.3532 70.7478 16.1957 70.2331 16.1957C69.0044 16.1957 68.4897 17.284 68.4897 19.0024C68.4897 20.7207 69.0967 21.8377 70.2039 21.8377C70.6896 21.8377 71.0343 21.6945 71.282 21.4892L71.6948 22.5775C71.3694 22.8687 70.777 23.1121 69.8154 23.1121" fill="#44ADE2"/>
<path fill-rule="evenodd" clip-rule="evenodd" d="M23.2243 8C20.3251 8 17.9747 10.3103 17.9747 13.1599C17.9747 13.8091 18.1009 14.4344 18.3195 15.0024C18.0038 11.494 21.8257 9.26969 23.4671 9.24105V15.4033H22.0588V14.3819H20.4271C20.3785 14.3819 20.5728 13.6993 20.6505 13.6993H22.0588V11.074C20.5388 11.6325 17.1928 15.494 20.9224 17.7995C21.6169 18.1337 22.3987 18.3246 23.2243 18.3246C26.1235 18.3246 28.4739 16.0143 28.4739 13.1599C28.4739 10.3055 26.1235 8 23.2243 8Z" fill="#44ADE2"/>
<path d="M45.7574 23.0024V15.6611C45.2524 15.3413 44.3394 15.0931 43.169 15.0931C40.5952 15.0931 39.3083 16.778 39.3083 19.3222C39.3083 21.6945 40.6098 23.1456 42.5183 23.1456C43.1982 23.1456 43.7032 23.031 44.014 22.8544V23.1885C44.014 23.1885 44.014 23.2697 44.0092 23.284C43.9218 24.1671 43.3924 24.7542 42.1881 24.7542C41.4499 24.7542 40.7409 24.5346 40.2795 24.2864L39.7745 25.4463C40.3524 25.7804 41.3576 26 42.494 26C44.3345 26 45.5729 25.074 45.7429 23.2697C45.7429 23.222 45.7526 23.0024 45.7526 23.0024H45.7574ZM44.014 21.8663C43.7615 22.0143 43.407 22.1146 42.9942 22.1146C41.6636 22.1146 41.1003 21.1408 41.1003 19.2363C41.1003 17.3317 41.6782 16.1384 43.0816 16.1384C43.4653 16.1384 43.7761 16.1814 44.014 16.315V21.8663V21.8663Z" fill="#6D6E71"/>
</g>
<path d="M95.6299 18.8418C95.557 19.4889 95.3724 20.0609 95.0762 20.5576C94.7799 21.0498 94.3607 21.4372 93.8184 21.7197C93.2806 21.9977 92.6243 22.1367 91.8496 22.1367C91.0794 22.1367 90.4004 21.9476 89.8125 21.5693C89.2246 21.1865 88.7689 20.6465 88.4453 19.9492C88.1217 19.252 87.96 18.4453 87.96 17.5293V16.5244C87.96 15.6038 88.1217 14.7949 88.4453 14.0977C88.7734 13.4004 89.2406 12.8626 89.8467 12.4844C90.4528 12.1016 91.1615 11.9102 91.9727 11.9102C92.7064 11.9102 93.3353 12.0492 93.8594 12.3271C94.3835 12.6006 94.7913 12.988 95.083 13.4893C95.3792 13.986 95.5615 14.5693 95.6299 15.2393H94.3037C94.1989 14.4964 93.9665 13.9359 93.6064 13.5576C93.2464 13.1748 92.7018 12.9834 91.9727 12.9834C91.3939 12.9834 90.904 13.1292 90.5029 13.4209C90.1019 13.7126 89.7988 14.1227 89.5938 14.6514C89.3932 15.18 89.293 15.7998 89.293 16.5107V17.5293C89.293 18.2038 89.3864 18.8076 89.5732 19.3408C89.7601 19.874 90.0449 20.2956 90.4277 20.6055C90.8105 20.9154 91.2845 21.0703 91.8496 21.0703C92.3919 21.0703 92.8294 20.986 93.1621 20.8174C93.4993 20.6442 93.7523 20.3958 93.9209 20.0723C94.0941 19.7487 94.2217 19.3385 94.3037 18.8418H95.6299ZM96.8945 18.2266C96.8945 17.5111 97.0312 16.8685 97.3047 16.2988C97.5781 15.7292 97.9678 15.2826 98.4736 14.959C98.984 14.6309 99.5765 14.4668 100.251 14.4668C100.935 14.4668 101.532 14.6309 102.042 14.959C102.552 15.2826 102.944 15.7292 103.218 16.2988C103.491 16.8685 103.628 17.5111 103.628 18.2266V18.3838C103.628 19.0993 103.491 19.7419 103.218 20.3115C102.944 20.8766 102.552 21.3232 102.042 21.6514C101.536 21.9749 100.944 22.1367 100.265 22.1367C99.5856 22.1367 98.9909 21.9749 98.4805 21.6514C97.9746 21.3232 97.5827 20.8766 97.3047 20.3115C97.0312 19.7419 96.8945 19.0993 96.8945 18.3838V18.2266ZM98.1729 18.3838C98.1729 18.8851 98.2503 19.3431 98.4053 19.7578C98.5648 20.1725 98.8018 20.5029 99.1162 20.749C99.4307 20.9906 99.8135 21.1113 100.265 21.1113C100.711 21.1113 101.092 20.9906 101.406 20.749C101.721 20.5029 101.955 20.1725 102.11 19.7578C102.27 19.3431 102.35 18.8851 102.35 18.3838V18.2266C102.35 17.7253 102.27 17.2673 102.11 16.8525C101.951 16.4378 101.714 16.1074 101.399 15.8613C101.085 15.6152 100.702 15.4922 100.251 15.4922C99.8044 15.4922 99.4238 15.6152 99.1094 15.8613C98.7995 16.1074 98.5648 16.4378 98.4053 16.8525C98.2503 17.2673 98.1729 17.7253 98.1729 18.2266V18.3838ZM108.673 14.4668C110.254 14.4668 111.045 15.3623 111.045 17.1533V22H109.767V17.1396C109.767 16.5745 109.644 16.1644 109.397 15.9092C109.156 15.654 108.789 15.5264 108.297 15.5264C107.905 15.5264 107.552 15.6335 107.237 15.8477C106.927 16.0618 106.681 16.349 106.499 16.709V22H105.221V14.6035H106.431L106.472 15.5127C106.741 15.18 107.062 14.9225 107.436 14.7402C107.809 14.5579 108.222 14.4668 108.673 14.4668ZM116.411 14.4668C117.993 14.4668 118.783 15.3623 118.783 17.1533V22H117.505V17.1396C117.505 16.5745 117.382 16.1644 117.136 15.9092C116.894 15.654 116.527 15.5264 116.035 15.5264C115.643 15.5264 115.29 15.6335 114.976 15.8477C114.666 16.0618 114.42 16.349 114.237 16.709V22H112.959V14.6035H114.169L114.21 15.5127C114.479 15.18 114.8 14.9225 115.174 14.7402C115.548 14.5579 115.96 14.4668 116.411 14.4668ZM126.658 18.6504H121.654C121.668 19.1107 121.764 19.5277 121.941 19.9014C122.119 20.2751 122.37 20.5713 122.693 20.79C123.021 21.0042 123.404 21.1113 123.842 21.1113C124.27 21.1113 124.639 21.0247 124.949 20.8516C125.264 20.6784 125.544 20.43 125.79 20.1064L126.562 20.708C126.289 21.1273 125.924 21.4714 125.469 21.7402C125.013 22.0046 124.448 22.1367 123.773 22.1367C123.099 22.1367 122.504 21.984 121.989 21.6787C121.474 21.3734 121.076 20.9495 120.793 20.4072C120.515 19.8649 120.376 19.2497 120.376 18.5615V18.2676C120.376 17.4974 120.526 16.8252 120.827 16.251C121.128 15.6722 121.524 15.2301 122.017 14.9248C122.513 14.6195 123.044 14.4668 123.609 14.4668C124.298 14.4668 124.867 14.6217 125.318 14.9316C125.774 15.237 126.111 15.6608 126.33 16.2031C126.549 16.7454 126.658 17.3721 126.658 18.083V18.6504ZM125.38 17.5293C125.343 16.9505 125.186 16.4674 124.908 16.0801C124.635 15.6882 124.202 15.4922 123.609 15.4922C123.099 15.4922 122.673 15.679 122.331 16.0527C121.994 16.4219 121.782 16.946 121.695 17.625H125.38V17.5293ZM134.055 19.6621C134.032 20.0951 133.884 20.5029 133.61 20.8857C133.337 21.264 132.977 21.5671 132.53 21.7949C132.088 22.0228 131.612 22.1367 131.102 22.1367C130.386 22.1367 129.78 21.9727 129.283 21.6445C128.791 21.3118 128.422 20.8675 128.176 20.3115C127.93 19.751 127.807 19.1289 127.807 18.4453V18.1582C127.807 17.4746 127.93 16.8548 128.176 16.2988C128.422 15.7383 128.791 15.2939 129.283 14.9658C129.78 14.6331 130.386 14.4668 131.102 14.4668C131.667 14.4668 132.168 14.583 132.605 14.8154C133.048 15.0479 133.394 15.3691 133.645 15.7793C133.895 16.1849 134.032 16.6406 134.055 17.1465H132.845C132.822 16.8411 132.735 16.5632 132.585 16.3125C132.435 16.0573 132.232 15.8568 131.977 15.7109C131.721 15.5651 131.43 15.4922 131.102 15.4922C130.614 15.4922 130.22 15.6198 129.919 15.875C129.618 16.1257 129.404 16.4515 129.276 16.8525C129.149 17.249 129.085 17.6842 129.085 18.1582V18.4453C129.085 19.2018 129.24 19.8353 129.55 20.3457C129.864 20.8561 130.382 21.1113 131.102 21.1113C131.398 21.1113 131.674 21.0498 131.929 20.9268C132.188 20.7992 132.4 20.626 132.564 20.4072C132.729 20.1839 132.822 19.9355 132.845 19.6621H134.055ZM138.614 22C138.323 22.0911 137.997 22.1367 137.637 22.1367C137.122 22.1367 136.707 21.9818 136.393 21.6719C136.083 21.362 135.928 20.8584 135.928 20.1611V15.5674H134.581V14.6035H135.928V12.8057H137.206V14.6035H138.587V15.5674H137.206V20.168C137.206 20.5189 137.279 20.7559 137.425 20.8789C137.571 20.9974 137.769 21.0566 138.02 21.0566C138.115 21.0566 138.22 21.0498 138.334 21.0361C138.448 21.0179 138.539 20.9997 138.607 20.9814L138.614 22ZM140.815 11.9102C141.052 11.9102 141.237 11.9785 141.369 12.1152C141.506 12.252 141.574 12.4251 141.574 12.6348C141.574 12.8398 141.506 13.0107 141.369 13.1475C141.237 13.2796 141.052 13.3457 140.815 13.3457C140.578 13.3457 140.394 13.2796 140.262 13.1475C140.134 13.0107 140.07 12.8398 140.07 12.6348C140.07 12.4251 140.134 12.252 140.262 12.1152C140.394 11.9785 140.578 11.9102 140.815 11.9102ZM140.166 22V14.6035H141.444V22H140.166ZM149.032 14.6035L146.38 22H145.519H145.409L142.729 14.6035H144.035L145.908 20.2705L147.727 14.6035H149.032ZM151.015 11.9102C151.252 11.9102 151.436 11.9785 151.568 12.1152C151.705 12.252 151.773 12.4251 151.773 12.6348C151.773 12.8398 151.705 13.0107 151.568 13.1475C151.436 13.2796 151.252 13.3457 151.015 13.3457C150.778 13.3457 150.593 13.2796 150.461 13.1475C150.333 13.0107 150.27 12.8398 150.27 12.6348C150.27 12.4251 150.333 12.252 150.461 12.1152C150.593 11.9785 150.778 11.9102 151.015 11.9102ZM150.365 22V14.6035H151.644V22H150.365ZM156.798 22C156.506 22.0911 156.18 22.1367 155.82 22.1367C155.305 22.1367 154.891 21.9818 154.576 21.6719C154.266 21.362 154.111 20.8584 154.111 20.1611V15.5674H152.765V14.6035H154.111V12.8057H155.39V14.6035H156.771V15.5674H155.39V20.168C155.39 20.5189 155.463 20.7559 155.608 20.8789C155.754 20.9974 155.952 21.0566 156.203 21.0566C156.299 21.0566 156.404 21.0498 156.518 21.0361C156.632 21.0179 156.723 20.9997 156.791 20.9814L156.798 22ZM163.736 14.6035L160.77 23.1416C160.587 23.6383 160.323 24.069 159.977 24.4336C159.635 24.8027 159.168 24.9873 158.575 24.9873C158.479 24.9873 158.354 24.9736 158.199 24.9463C158.049 24.9235 157.935 24.9007 157.857 24.8779V23.8594C157.908 23.8685 157.965 23.8753 158.028 23.8799C158.092 23.889 158.149 23.8936 158.199 23.8936C158.632 23.8936 158.967 23.8024 159.204 23.6201C159.446 23.4424 159.642 23.1279 159.792 22.6768L160.072 21.918L157.434 14.6035H158.828L160.66 20.1406L162.376 14.6035H163.736ZM171.365 14.4668C171.447 14.4668 171.55 14.4782 171.673 14.501C171.796 14.5192 171.88 14.5397 171.926 14.5625V15.7314C171.73 15.695 171.522 15.6768 171.304 15.6768C170.884 15.6768 170.534 15.7702 170.251 15.957C169.973 16.1439 169.763 16.4059 169.622 16.7432V22H168.344V14.6035H169.588L169.615 15.4443C169.807 15.1344 170.048 14.8952 170.34 14.7266C170.632 14.5534 170.973 14.4668 171.365 14.4668ZM173.847 11.9102C174.084 11.9102 174.268 11.9785 174.4 12.1152C174.537 12.252 174.605 12.4251 174.605 12.6348C174.605 12.8398 174.537 13.0107 174.4 13.1475C174.268 13.2796 174.084 13.3457 173.847 13.3457C173.61 13.3457 173.425 13.2796 173.293 13.1475C173.165 13.0107 173.102 12.8398 173.102 12.6348C173.102 12.4251 173.165 12.252 173.293 12.1152C173.425 11.9785 173.61 11.9102 173.847 11.9102ZM173.197 22V14.6035H174.476V22H173.197ZM179.104 18.7529C178.224 18.5706 177.559 18.3154 177.107 17.9873C176.661 17.6592 176.438 17.2057 176.438 16.627C176.438 16.235 176.551 15.875 176.779 15.5469C177.007 15.2188 177.328 14.9567 177.743 14.7607C178.162 14.5648 178.641 14.4668 179.179 14.4668C179.753 14.4668 180.254 14.5693 180.683 14.7744C181.111 14.9795 181.437 15.2575 181.66 15.6084C181.888 15.9548 182.002 16.3421 182.002 16.7705H180.724C180.724 16.5609 180.662 16.3581 180.539 16.1621C180.416 15.9661 180.236 15.8066 179.999 15.6836C179.767 15.556 179.493 15.4922 179.179 15.4922C178.846 15.4922 178.57 15.5446 178.352 15.6494C178.133 15.7497 177.971 15.8841 177.866 16.0527C177.766 16.2168 177.716 16.3945 177.716 16.5859C177.716 16.7819 177.761 16.946 177.853 17.0781C177.948 17.2057 178.117 17.3219 178.358 17.4268C178.604 17.5316 178.958 17.6341 179.418 17.7344C180.038 17.8757 180.541 18.042 180.929 18.2334C181.316 18.4248 181.603 18.6595 181.79 18.9375C181.981 19.2155 182.077 19.5527 182.077 19.9492C182.077 20.3776 181.959 20.7581 181.722 21.0908C181.485 21.4189 181.15 21.6764 180.717 21.8633C180.284 22.0456 179.783 22.1367 179.213 22.1367C178.584 22.1367 178.039 22.0251 177.579 21.8018C177.123 21.5739 176.777 21.2754 176.54 20.9062C176.303 20.5371 176.185 20.1429 176.185 19.7236H177.463C177.481 20.0518 177.577 20.3206 177.75 20.5303C177.923 20.7354 178.137 20.8835 178.393 20.9746C178.652 21.0658 178.926 21.1113 179.213 21.1113C179.546 21.1113 179.83 21.0658 180.067 20.9746C180.309 20.8789 180.491 20.7513 180.614 20.5918C180.737 20.4277 180.799 20.2432 180.799 20.0381C180.799 19.833 180.756 19.6553 180.669 19.5049C180.582 19.3545 180.416 19.2155 180.17 19.0879C179.924 18.9603 179.568 18.8486 179.104 18.7529ZM185.803 18.5684L185.01 19.3887V22H183.731V11.5H185.01V17.8438L185.687 17.0439L187.97 14.6035H189.521L186.644 17.6865L189.863 22H188.359L185.803 18.5684ZM199.946 20.3867C199.946 20.6465 199.969 20.9154 200.015 21.1934C200.06 21.4668 200.124 21.6992 200.206 21.8906V22H198.873C198.796 21.8223 198.736 21.5648 198.695 21.2275C198.44 21.501 198.132 21.722 197.772 21.8906C197.417 22.0547 197.025 22.1367 196.597 22.1367C196.104 22.1367 195.667 22.041 195.284 21.8496C194.906 21.6536 194.612 21.3893 194.402 21.0566C194.197 20.724 194.095 20.3548 194.095 19.9492C194.095 19.4251 194.229 18.9808 194.498 18.6162C194.771 18.2516 195.157 17.9782 195.653 17.7959C196.155 17.609 196.745 17.5156 197.424 17.5156H198.668V16.9277C198.668 16.4766 198.534 16.1234 198.265 15.8682C198 15.6084 197.618 15.4785 197.116 15.4785C196.811 15.4785 196.537 15.5332 196.296 15.6426C196.054 15.7474 195.865 15.891 195.729 16.0732C195.596 16.251 195.53 16.4447 195.53 16.6543H194.252C194.252 16.2943 194.375 15.9456 194.621 15.6084C194.867 15.2712 195.214 14.9977 195.66 14.7881C196.107 14.5739 196.617 14.4668 197.191 14.4668C197.738 14.4668 198.217 14.5602 198.627 14.7471C199.042 14.9294 199.365 15.2074 199.598 15.5811C199.83 15.9502 199.946 16.4036 199.946 16.9414V20.3867ZM196.781 21.043C197.073 21.043 197.344 20.9928 197.595 20.8926C197.85 20.7878 198.069 20.651 198.251 20.4824C198.433 20.3138 198.572 20.1315 198.668 19.9355V18.4043H197.629C196.9 18.4043 196.341 18.5205 195.954 18.7529C195.567 18.9808 195.373 19.3203 195.373 19.7715C195.373 20.013 195.428 20.2295 195.537 20.4209C195.646 20.6123 195.806 20.765 196.016 20.8789C196.225 20.9883 196.48 21.043 196.781 21.043ZM205.388 14.4668C206.969 14.4668 207.76 15.3623 207.76 17.1533V22H206.481V17.1396C206.481 16.5745 206.358 16.1644 206.112 15.9092C205.871 15.654 205.504 15.5264 205.012 15.5264C204.62 15.5264 204.267 15.6335 203.952 15.8477C203.642 16.0618 203.396 16.349 203.214 16.709V22H201.936V14.6035H203.146L203.187 15.5127C203.455 15.18 203.777 14.9225 204.15 14.7402C204.524 14.5579 204.937 14.4668 205.388 14.4668ZM215.313 20.3867C215.313 20.6465 215.336 20.9154 215.382 21.1934C215.427 21.4668 215.491 21.6992 215.573 21.8906V22H214.24C214.163 21.8223 214.104 21.5648 214.062 21.2275C213.807 21.501 213.5 21.722 213.14 21.8906C212.784 22.0547 212.392 22.1367 211.964 22.1367C211.472 22.1367 211.034 22.041 210.651 21.8496C210.273 21.6536 209.979 21.3893 209.77 21.0566C209.564 20.724 209.462 20.3548 209.462 19.9492C209.462 19.4251 209.596 18.9808 209.865 18.6162C210.139 18.2516 210.524 17.9782 211.021 17.7959C211.522 17.609 212.112 17.5156 212.791 17.5156H214.035V16.9277C214.035 16.4766 213.901 16.1234 213.632 15.8682C213.368 15.6084 212.985 15.4785 212.483 15.4785C212.178 15.4785 211.905 15.5332 211.663 15.6426C211.422 15.7474 211.232 15.891 211.096 16.0732C210.964 16.251 210.897 16.4447 210.897 16.6543H209.619C209.619 16.2943 209.742 15.9456 209.988 15.6084C210.234 15.2712 210.581 14.9977 211.027 14.7881C211.474 14.5739 211.984 14.4668 212.559 14.4668C213.105 14.4668 213.584 14.5602 213.994 14.7471C214.409 14.9294 214.732 15.2074 214.965 15.5811C215.197 15.9502 215.313 16.4036 215.313 16.9414V20.3867ZM212.148 21.043C212.44 21.043 212.711 20.9928 212.962 20.8926C213.217 20.7878 213.436 20.651 213.618 20.4824C213.8 20.3138 213.939 20.1315 214.035 19.9355V18.4043H212.996C212.267 18.4043 211.709 18.5205 211.321 18.7529C210.934 18.9808 210.74 19.3203 210.74 19.7715C210.74 20.013 210.795 20.2295 210.904 20.4209C211.014 20.6123 211.173 20.765 211.383 20.8789C211.592 20.9883 211.848 21.043 212.148 21.043ZM217.412 22V11.5H218.69V22H217.412ZM226.203 14.6035L223.236 23.1416C223.054 23.6383 222.79 24.069 222.443 24.4336C222.102 24.8027 221.634 24.9873 221.042 24.9873C220.946 24.9873 220.821 24.9736 220.666 24.9463C220.516 24.9235 220.402 24.9007 220.324 24.8779V23.8594C220.374 23.8685 220.431 23.8753 220.495 23.8799C220.559 23.889 220.616 23.8936 220.666 23.8936C221.099 23.8936 221.434 23.8024 221.671 23.6201C221.912 23.4424 222.108 23.1279 222.259 22.6768L222.539 21.918L219.9 14.6035H221.295L223.127 20.1406L224.843 14.6035H226.203ZM229.949 18.7529C229.07 18.5706 228.404 18.3154 227.953 17.9873C227.507 17.6592 227.283 17.2057 227.283 16.627C227.283 16.235 227.397 15.875 227.625 15.5469C227.853 15.2188 228.174 14.9567 228.589 14.7607C229.008 14.5648 229.487 14.4668 230.024 14.4668C230.599 14.4668 231.1 14.5693 231.528 14.7744C231.957 14.9795 232.283 15.2575 232.506 15.6084C232.734 15.9548 232.848 16.3421 232.848 16.7705H231.569C231.569 16.5609 231.508 16.3581 231.385 16.1621C231.262 15.9661 231.082 15.8066 230.845 15.6836C230.612 15.556 230.339 15.4922 230.024 15.4922C229.692 15.4922 229.416 15.5446 229.197 15.6494C228.979 15.7497 228.817 15.8841 228.712 16.0527C228.612 16.2168 228.562 16.3945 228.562 16.5859C228.562 16.7819 228.607 16.946 228.698 17.0781C228.794 17.2057 228.963 17.3219 229.204 17.4268C229.45 17.5316 229.803 17.6341 230.264 17.7344C230.883 17.8757 231.387 18.042 231.774 18.2334C232.162 18.4248 232.449 18.6595 232.636 18.9375C232.827 19.2155 232.923 19.5527 232.923 19.9492C232.923 20.3776 232.804 20.7581 232.567 21.0908C232.33 21.4189 231.995 21.6764 231.562 21.8633C231.13 22.0456 230.628 22.1367 230.059 22.1367C229.43 22.1367 228.885 22.0251 228.425 21.8018C227.969 21.5739 227.623 21.2754 227.386 20.9062C227.149 20.5371 227.03 20.1429 227.03 19.7236H228.309C228.327 20.0518 228.423 20.3206 228.596 20.5303C228.769 20.7354 228.983 20.8835 229.238 20.9746C229.498 21.0658 229.771 21.1113 230.059 21.1113C230.391 21.1113 230.676 21.0658 230.913 20.9746C231.155 20.8789 231.337 20.7513 231.46 20.5918C231.583 20.4277 231.645 20.2432 231.645 20.0381C231.645 19.833 231.601 19.6553 231.515 19.5049C231.428 19.3545 231.262 19.2155 231.016 19.0879C230.77 18.9603 230.414 18.8486 229.949 18.7529ZM235.329 11.9102C235.566 11.9102 235.751 11.9785 235.883 12.1152C236.02 12.252 236.088 12.4251 236.088 12.6348C236.088 12.8398 236.02 13.0107 235.883 13.1475C235.751 13.2796 235.566 13.3457 235.329 13.3457C235.092 13.3457 234.908 13.2796 234.775 13.1475C234.648 13.0107 234.584 12.8398 234.584 12.6348C234.584 12.4251 234.648 12.252 234.775 12.1152C234.908 11.9785 235.092 11.9102 235.329 11.9102ZM234.68 22V14.6035H235.958V22H234.68ZM240.586 18.7529C239.706 18.5706 239.041 18.3154 238.59 17.9873C238.143 17.6592 237.92 17.2057 237.92 16.627C237.92 16.235 238.034 15.875 238.262 15.5469C238.49 15.2188 238.811 14.9567 239.226 14.7607C239.645 14.5648 240.123 14.4668 240.661 14.4668C241.235 14.4668 241.737 14.5693 242.165 14.7744C242.593 14.9795 242.919 15.2575 243.143 15.6084C243.37 15.9548 243.484 16.3421 243.484 16.7705H242.206C242.206 16.5609 242.145 16.3581 242.021 16.1621C241.898 15.9661 241.718 15.8066 241.481 15.6836C241.249 15.556 240.976 15.4922 240.661 15.4922C240.328 15.4922 240.053 15.5446 239.834 15.6494C239.615 15.7497 239.453 15.8841 239.349 16.0527C239.248 16.2168 239.198 16.3945 239.198 16.5859C239.198 16.7819 239.244 16.946 239.335 17.0781C239.431 17.2057 239.599 17.3219 239.841 17.4268C240.087 17.5316 240.44 17.6341 240.9 17.7344C241.52 17.8757 242.024 18.042 242.411 18.2334C242.799 18.4248 243.086 18.6595 243.272 18.9375C243.464 19.2155 243.56 19.5527 243.56 19.9492C243.56 20.3776 243.441 20.7581 243.204 21.0908C242.967 21.4189 242.632 21.6764 242.199 21.8633C241.766 22.0456 241.265 22.1367 240.695 22.1367C240.066 22.1367 239.522 22.0251 239.062 21.8018C238.606 21.5739 238.259 21.2754 238.022 20.9062C237.785 20.5371 237.667 20.1429 237.667 19.7236H238.945C238.964 20.0518 239.059 20.3206 239.232 20.5303C239.406 20.7354 239.62 20.8835 239.875 20.9746C240.135 21.0658 240.408 21.1113 240.695 21.1113C241.028 21.1113 241.313 21.0658 241.55 20.9746C241.791 20.8789 241.974 20.7513 242.097 20.5918C242.22 20.4277 242.281 20.2432 242.281 20.0381C242.281 19.833 242.238 19.6553 242.151 19.5049C242.065 19.3545 241.898 19.2155 241.652 19.0879C241.406 18.9603 241.051 18.8486 240.586 18.7529Z" fill="#505050"/>
<path d="M262 26C266.418 26 270 22.4183 270 18C270 13.5817 266.418 10 262 10C257.582 10 254 13.5817 254 18C254 22.4183 257.582 26 262 26Z" fill="#E86770"/>
<path d="M262.652 18L265.557 15.0954C265.602 15.0532 265.639 15.0022 265.664 14.9456C265.689 14.889 265.703 14.8279 265.704 14.7659C265.705 14.7039 265.693 14.6424 265.67 14.5849C265.647 14.5274 265.612 14.4752 265.569 14.4314C265.525 14.3876 265.473 14.353 265.415 14.3298C265.358 14.3066 265.296 14.2952 265.234 14.2963C265.172 14.2974 265.111 14.3109 265.054 14.3362C264.998 14.3614 264.947 14.3978 264.905 14.4431L262 17.3477L259.095 14.4431C259.053 14.3978 259.002 14.3614 258.946 14.3362C258.889 14.3109 258.828 14.2974 258.766 14.2963C258.704 14.2952 258.642 14.3066 258.585 14.3298C258.527 14.353 258.475 14.3876 258.431 14.4314C258.387 14.4752 258.353 14.5274 258.33 14.5849C258.307 14.6424 258.295 14.7039 258.296 14.7659C258.297 14.8279 258.311 14.889 258.336 14.9456C258.361 15.0022 258.398 15.0532 258.443 15.0954L261.348 18L258.443 20.9046C258.398 20.9469 258.361 20.9978 258.336 21.0545C258.311 21.1111 258.297 21.1722 258.296 21.2342C258.295 21.2961 258.307 21.3577 258.33 21.4152C258.353 21.4726 258.387 21.5248 258.431 21.5687C258.475 21.6125 258.527 21.647 258.585 21.6703C258.642 21.6935 258.704 21.7049 258.766 21.7038C258.828 21.7027 258.889 21.6891 258.946 21.6639C259.002 21.6387 259.053 21.6023 259.095 21.5569L262 18.6523L264.905 21.5569C264.947 21.6023 264.998 21.6387 265.054 21.6639C265.111 21.6891 265.172 21.7027 265.234 21.7038C265.296 21.7049 265.358 21.6935 265.415 21.6703C265.473 21.647 265.525 21.6125 265.569 21.5687C265.612 21.5248 265.647 21.4726 265.67 21.4152C265.693 21.3577 265.705 21.2961 265.704 21.2342C265.703 21.1722 265.689 21.1111 265.664 21.0545C265.639 20.9978 265.602 20.9469 265.557 20.9046L262.652 18Z" fill="white"/>
<defs>
<clipPath id="clip0_123_67">
<rect width="53.7153" height="18" fill="white" transform="translate(17.9747 8)"/>
</clipPath>
</defs>
</svg>
