<svg width="594" height="36" viewBox="0 0 594 36" fill="none" xmlns="http://www.w3.org/2000/svg">
<rect width="594" height="36" fill="#F7F7F7"/>
<path d="M26.0322 13.1201H22.8398V22H21.5273V13.1201H18.3418V12.0469H22.8398H26.0322V13.1201ZM33.2715 18.6504H28.2676C28.2812 19.1107 28.377 19.5277 28.5547 19.9014C28.7324 20.2751 28.9831 20.5713 29.3066 20.79C29.6348 21.0042 30.0176 21.1113 30.4551 21.1113C30.8835 21.1113 31.2526 21.0247 31.5625 20.8516C31.877 20.6784 32.1572 20.43 32.4033 20.1064L33.1758 20.708C32.9023 21.1273 32.5378 21.4714 32.082 21.7402C31.6263 22.0046 31.0612 22.1367 30.3867 22.1367C29.7122 22.1367 29.1175 21.984 28.6025 21.6787C28.0876 21.3734 27.6888 20.9495 27.4062 20.4072C27.1283 19.8649 26.9893 19.2497 26.9893 18.5615V18.2676C26.9893 17.4974 27.1396 16.8252 27.4404 16.251C27.7412 15.6722 28.1377 15.2301 28.6299 14.9248C29.1266 14.6195 29.6576 14.4668 30.2227 14.4668C30.9108 14.4668 31.4805 14.6217 31.9316 14.9316C32.3874 15.237 32.7246 15.6608 32.9434 16.2031C33.1621 16.7454 33.2715 17.3721 33.2715 18.083V18.6504ZM31.9932 17.5293C31.9567 16.9505 31.7995 16.4674 31.5215 16.0801C31.248 15.6882 30.8151 15.4922 30.2227 15.4922C29.7122 15.4922 29.2861 15.679 28.9443 16.0527C28.6071 16.4219 28.3952 16.946 28.3086 17.625H31.9932V17.5293ZM37.7695 14.4668C37.8516 14.4668 37.9541 14.4782 38.0771 14.501C38.2002 14.5192 38.2845 14.5397 38.3301 14.5625V15.7314C38.1341 15.695 37.9268 15.6768 37.708 15.6768C37.2887 15.6768 36.9378 15.7702 36.6553 15.957C36.3773 16.1439 36.1676 16.4059 36.0264 16.7432V22H34.748V14.6035H35.9922L36.0195 15.4443C36.2109 15.1344 36.4525 14.8952 36.7441 14.7266C37.0358 14.5534 37.3776 14.4668 37.7695 14.4668ZM42.5137 14.4668C42.5957 14.4668 42.6982 14.4782 42.8213 14.501C42.9443 14.5192 43.0286 14.5397 43.0742 14.5625V15.7314C42.8783 15.695 42.6709 15.6768 42.4521 15.6768C42.0329 15.6768 41.682 15.7702 41.3994 15.957C41.1214 16.1439 40.9118 16.4059 40.7705 16.7432V22H39.4922V14.6035H40.7363L40.7637 15.4443C40.9551 15.1344 41.1966 14.8952 41.4883 14.7266C41.7799 14.5534 42.1217 14.4668 42.5137 14.4668ZM49.6572 20.3867C49.6572 20.6465 49.68 20.9154 49.7256 21.1934C49.7712 21.4668 49.835 21.6992 49.917 21.8906V22H48.584C48.5065 21.8223 48.4473 21.5648 48.4062 21.2275C48.151 21.501 47.8434 21.722 47.4834 21.8906C47.1279 22.0547 46.736 22.1367 46.3076 22.1367C45.8154 22.1367 45.3779 22.041 44.9951 21.8496C44.6169 21.6536 44.3229 21.3893 44.1133 21.0566C43.9082 20.724 43.8057 20.3548 43.8057 19.9492C43.8057 19.4251 43.9401 18.9808 44.209 18.6162C44.4824 18.2516 44.8675 17.9782 45.3643 17.7959C45.8656 17.609 46.4557 17.5156 47.1348 17.5156H48.3789V16.9277C48.3789 16.4766 48.2445 16.1234 47.9756 15.8682C47.7113 15.6084 47.3285 15.4785 46.8271 15.4785C46.5218 15.4785 46.2484 15.5332 46.0068 15.6426C45.7653 15.7474 45.5762 15.891 45.4395 16.0732C45.3073 16.251 45.2412 16.4447 45.2412 16.6543H43.9629C43.9629 16.2943 44.0859 15.9456 44.332 15.6084C44.5781 15.2712 44.9245 14.9977 45.3711 14.7881C45.8177 14.5739 46.3281 14.4668 46.9023 14.4668C47.4492 14.4668 47.9277 14.5602 48.3379 14.7471C48.7526 14.9294 49.0762 15.2074 49.3086 15.5811C49.541 15.9502 49.6572 16.4036 49.6572 16.9414V20.3867ZM46.4922 21.043C46.7839 21.043 47.055 20.9928 47.3057 20.8926C47.5609 20.7878 47.7796 20.651 47.9619 20.4824C48.1442 20.3138 48.2832 20.1315 48.3789 19.9355V18.4043H47.3398C46.6107 18.4043 46.0524 18.5205 45.665 18.7529C45.2777 18.9808 45.084 19.3203 45.084 19.7715C45.084 20.013 45.1387 20.2295 45.248 20.4209C45.3574 20.6123 45.5169 20.765 45.7266 20.8789C45.9362 20.9883 46.1914 21.043 46.4922 21.043ZM54.8252 12.4297C54.4196 12.4297 54.1051 12.5505 53.8818 12.792C53.6585 13.029 53.5469 13.3708 53.5469 13.8174V14.6035H55.1191V15.5674H53.5469V22H52.2686V15.5674H51.1064V14.6035H52.2686V13.8174C52.2686 13.029 52.4827 12.4229 52.9111 11.999C53.3441 11.5706 53.9434 11.3564 54.709 11.3564C54.987 11.3564 55.2764 11.3929 55.5771 11.4658L55.5088 12.4844C55.3037 12.4479 55.0758 12.4297 54.8252 12.4297ZM56.1855 18.2266C56.1855 17.5111 56.3223 16.8685 56.5957 16.2988C56.8691 15.7292 57.2588 15.2826 57.7646 14.959C58.2751 14.6309 58.8675 14.4668 59.542 14.4668C60.2256 14.4668 60.8226 14.6309 61.333 14.959C61.8434 15.2826 62.2354 15.7292 62.5088 16.2988C62.7822 16.8685 62.9189 17.5111 62.9189 18.2266V18.3838C62.9189 19.0993 62.7822 19.7419 62.5088 20.3115C62.2354 20.8766 61.8434 21.3232 61.333 21.6514C60.8271 21.9749 60.2347 22.1367 59.5557 22.1367C58.8766 22.1367 58.2819 21.9749 57.7715 21.6514C57.2656 21.3232 56.8737 20.8766 56.5957 20.3115C56.3223 19.7419 56.1855 19.0993 56.1855 18.3838V18.2266ZM57.4639 18.3838C57.4639 18.8851 57.5413 19.3431 57.6963 19.7578C57.8558 20.1725 58.0928 20.5029 58.4072 20.749C58.7217 20.9906 59.1045 21.1113 59.5557 21.1113C60.0023 21.1113 60.3828 20.9906 60.6973 20.749C61.0117 20.5029 61.2464 20.1725 61.4014 19.7578C61.5609 19.3431 61.6406 18.8851 61.6406 18.3838V18.2266C61.6406 17.7253 61.5609 17.2673 61.4014 16.8525C61.2419 16.4378 61.0049 16.1074 60.6904 15.8613C60.376 15.6152 59.9932 15.4922 59.542 15.4922C59.0954 15.4922 58.7148 15.6152 58.4004 15.8613C58.0905 16.1074 57.8558 16.4378 57.6963 16.8525C57.5413 17.2673 57.4639 17.7253 57.4639 18.2266V18.3838ZM67.5332 14.4668C67.6152 14.4668 67.7178 14.4782 67.8408 14.501C67.9639 14.5192 68.0482 14.5397 68.0938 14.5625V15.7314C67.8978 15.695 67.6904 15.6768 67.4717 15.6768C67.0524 15.6768 66.7015 15.7702 66.4189 15.957C66.141 16.1439 65.9313 16.4059 65.79 16.7432V22H64.5117V14.6035H65.7559L65.7832 15.4443C65.9746 15.1344 66.2161 14.8952 66.5078 14.7266C66.7995 14.5534 67.1413 14.4668 67.5332 14.4668ZM77.1445 14.4668C77.9557 14.4668 78.571 14.6833 78.9902 15.1162C79.4095 15.5492 79.6191 16.2236 79.6191 17.1396V22H78.3408V17.126C78.3408 16.5381 78.2064 16.1257 77.9375 15.8887C77.6732 15.6471 77.2835 15.5264 76.7686 15.5264C76.4404 15.5264 76.1533 15.597 75.9072 15.7383C75.6611 15.875 75.4674 16.0618 75.3262 16.2988C75.1895 16.5358 75.1051 16.8024 75.0732 17.0986V22H73.7949V17.1328C73.7949 16.0618 73.2686 15.5264 72.2158 15.5264C71.792 15.5264 71.4411 15.6198 71.1631 15.8066C70.8851 15.9889 70.6732 16.2441 70.5273 16.5723V22H69.249V14.6035H70.459L70.5 15.4033C70.7552 15.1025 71.0651 14.8724 71.4297 14.7129C71.7943 14.5488 72.2113 14.4668 72.6807 14.4668C73.1683 14.4668 73.5944 14.5648 73.959 14.7607C74.3281 14.9521 74.6061 15.2461 74.793 15.6426C75.0482 15.278 75.374 14.9909 75.7705 14.7812C76.1715 14.5716 76.6296 14.4668 77.1445 14.4668ZM88.376 14.4668C88.9867 14.4668 89.5085 14.624 89.9414 14.9385C90.3743 15.2484 90.7025 15.6882 90.9258 16.2578C91.1491 16.8229 91.2607 17.4837 91.2607 18.2402V18.3838C91.2607 19.1084 91.1468 19.7555 90.9189 20.3252C90.6956 20.8903 90.3675 21.3346 89.9346 21.6582C89.5062 21.9772 88.9935 22.1367 88.3965 22.1367C87.5033 22.1367 86.7992 21.8542 86.2842 21.2891V24.8438H85.0059V14.6035H86.168L86.2363 15.4102C86.7513 14.7812 87.4645 14.4668 88.376 14.4668ZM89.9824 18.2402C89.9824 17.7298 89.9095 17.2718 89.7637 16.8662C89.6224 16.4561 89.4014 16.1302 89.1006 15.8887C88.8044 15.6471 88.4352 15.5264 87.9932 15.5264C87.5921 15.5264 87.2503 15.6175 86.9678 15.7998C86.6852 15.9821 86.4574 16.2305 86.2842 16.5449V20.1064C86.6624 20.7764 87.2367 21.1113 88.0068 21.1113C88.4443 21.1113 88.8112 20.9906 89.1074 20.749C89.4036 20.5029 89.6224 20.1748 89.7637 19.7646C89.9095 19.3545 89.9824 18.8942 89.9824 18.3838V18.2402ZM95.8887 14.4668C95.9707 14.4668 96.0732 14.4782 96.1963 14.501C96.3193 14.5192 96.4036 14.5397 96.4492 14.5625V15.7314C96.2533 15.695 96.0459 15.6768 95.8271 15.6768C95.4079 15.6768 95.057 15.7702 94.7744 15.957C94.4964 16.1439 94.2868 16.4059 94.1455 16.7432V22H92.8672V14.6035H94.1113L94.1387 15.4443C94.3301 15.1344 94.5716 14.8952 94.8633 14.7266C95.1549 14.5534 95.4967 14.4668 95.8887 14.4668ZM97.0371 18.2266C97.0371 17.5111 97.1738 16.8685 97.4473 16.2988C97.7207 15.7292 98.1104 15.2826 98.6162 14.959C99.1266 14.6309 99.7191 14.4668 100.394 14.4668C101.077 14.4668 101.674 14.6309 102.185 14.959C102.695 15.2826 103.087 15.7292 103.36 16.2988C103.634 16.8685 103.771 17.5111 103.771 18.2266V18.3838C103.771 19.0993 103.634 19.7419 103.36 20.3115C103.087 20.8766 102.695 21.3232 102.185 21.6514C101.679 21.9749 101.086 22.1367 100.407 22.1367C99.7282 22.1367 99.1335 21.9749 98.623 21.6514C98.1172 21.3232 97.7253 20.8766 97.4473 20.3115C97.1738 19.7419 97.0371 19.0993 97.0371 18.3838V18.2266ZM98.3154 18.3838C98.3154 18.8851 98.3929 19.3431 98.5479 19.7578C98.7074 20.1725 98.9443 20.5029 99.2588 20.749C99.5732 20.9906 99.9561 21.1113 100.407 21.1113C100.854 21.1113 101.234 20.9906 101.549 20.749C101.863 20.5029 102.098 20.1725 102.253 19.7578C102.412 19.3431 102.492 18.8851 102.492 18.3838V18.2266C102.492 17.7253 102.412 17.2673 102.253 16.8525C102.093 16.4378 101.856 16.1074 101.542 15.8613C101.228 15.6152 100.845 15.4922 100.394 15.4922C99.9469 15.4922 99.5664 15.6152 99.252 15.8613C98.9421 16.1074 98.7074 16.4378 98.5479 16.8525C98.3929 17.2673 98.3154 17.7253 98.3154 18.2266V18.3838ZM111.283 19.6621C111.26 20.0951 111.112 20.5029 110.839 20.8857C110.565 21.264 110.205 21.5671 109.759 21.7949C109.317 22.0228 108.84 22.1367 108.33 22.1367C107.615 22.1367 107.008 21.9727 106.512 21.6445C106.02 21.3118 105.65 20.8675 105.404 20.3115C105.158 19.751 105.035 19.1289 105.035 18.4453V18.1582C105.035 17.4746 105.158 16.8548 105.404 16.2988C105.65 15.7383 106.02 15.2939 106.512 14.9658C107.008 14.6331 107.615 14.4668 108.33 14.4668C108.895 14.4668 109.396 14.583 109.834 14.8154C110.276 15.0479 110.622 15.3691 110.873 15.7793C111.124 16.1849 111.26 16.6406 111.283 17.1465H110.073C110.05 16.8411 109.964 16.5632 109.813 16.3125C109.663 16.0573 109.46 15.8568 109.205 15.7109C108.95 15.5651 108.658 15.4922 108.33 15.4922C107.842 15.4922 107.448 15.6198 107.147 15.875C106.847 16.1257 106.632 16.4515 106.505 16.8525C106.377 17.249 106.313 17.6842 106.313 18.1582V18.4453C106.313 19.2018 106.468 19.8353 106.778 20.3457C107.093 20.8561 107.61 21.1113 108.33 21.1113C108.626 21.1113 108.902 21.0498 109.157 20.9268C109.417 20.7992 109.629 20.626 109.793 20.4072C109.957 20.1839 110.05 19.9355 110.073 19.6621H111.283ZM118.666 18.6504H113.662C113.676 19.1107 113.771 19.5277 113.949 19.9014C114.127 20.2751 114.378 20.5713 114.701 20.79C115.029 21.0042 115.412 21.1113 115.85 21.1113C116.278 21.1113 116.647 21.0247 116.957 20.8516C117.271 20.6784 117.552 20.43 117.798 20.1064L118.57 20.708C118.297 21.1273 117.932 21.4714 117.477 21.7402C117.021 22.0046 116.456 22.1367 115.781 22.1367C115.107 22.1367 114.512 21.984 113.997 21.6787C113.482 21.3734 113.083 20.9495 112.801 20.4072C112.523 19.8649 112.384 19.2497 112.384 18.5615V18.2676C112.384 17.4974 112.534 16.8252 112.835 16.251C113.136 15.6722 113.532 15.2301 114.024 14.9248C114.521 14.6195 115.052 14.4668 115.617 14.4668C116.305 14.4668 116.875 14.6217 117.326 14.9316C117.782 15.237 118.119 15.6608 118.338 16.2031C118.557 16.7454 118.666 17.3721 118.666 18.083V18.6504ZM117.388 17.5293C117.351 16.9505 117.194 16.4674 116.916 16.0801C116.643 15.6882 116.21 15.4922 115.617 15.4922C115.107 15.4922 114.681 15.679 114.339 16.0527C114.002 16.4219 113.79 16.946 113.703 17.625H117.388V17.5293ZM122.754 18.7529C121.874 18.5706 121.209 18.3154 120.758 17.9873C120.311 17.6592 120.088 17.2057 120.088 16.627C120.088 16.235 120.202 15.875 120.43 15.5469C120.658 15.2188 120.979 14.9567 121.394 14.7607C121.813 14.5648 122.291 14.4668 122.829 14.4668C123.403 14.4668 123.905 14.5693 124.333 14.7744C124.761 14.9795 125.087 15.2575 125.311 15.6084C125.538 15.9548 125.652 16.3421 125.652 16.7705H124.374C124.374 16.5609 124.312 16.3581 124.189 16.1621C124.066 15.9661 123.886 15.8066 123.649 15.6836C123.417 15.556 123.144 15.4922 122.829 15.4922C122.496 15.4922 122.221 15.5446 122.002 15.6494C121.783 15.7497 121.621 15.8841 121.517 16.0527C121.416 16.2168 121.366 16.3945 121.366 16.5859C121.366 16.7819 121.412 16.946 121.503 17.0781C121.599 17.2057 121.767 17.3219 122.009 17.4268C122.255 17.5316 122.608 17.6341 123.068 17.7344C123.688 17.8757 124.192 18.042 124.579 18.2334C124.966 18.4248 125.254 18.6595 125.44 18.9375C125.632 19.2155 125.728 19.5527 125.728 19.9492C125.728 20.3776 125.609 20.7581 125.372 21.0908C125.135 21.4189 124.8 21.6764 124.367 21.8633C123.934 22.0456 123.433 22.1367 122.863 22.1367C122.234 22.1367 121.69 22.0251 121.229 21.8018C120.774 21.5739 120.427 21.2754 120.19 20.9062C119.953 20.5371 119.835 20.1429 119.835 19.7236H121.113C121.132 20.0518 121.227 20.3206 121.4 20.5303C121.574 20.7354 121.788 20.8835 122.043 20.9746C122.303 21.0658 122.576 21.1113 122.863 21.1113C123.196 21.1113 123.481 21.0658 123.718 20.9746C123.959 20.8789 124.142 20.7513 124.265 20.5918C124.388 20.4277 124.449 20.2432 124.449 20.0381C124.449 19.833 124.406 19.6553 124.319 19.5049C124.233 19.3545 124.066 19.2155 123.82 19.0879C123.574 18.9603 123.219 18.8486 122.754 18.7529ZM129.986 18.7529C129.107 18.5706 128.441 18.3154 127.99 17.9873C127.544 17.6592 127.32 17.2057 127.32 16.627C127.32 16.235 127.434 15.875 127.662 15.5469C127.89 15.2188 128.211 14.9567 128.626 14.7607C129.045 14.5648 129.524 14.4668 130.062 14.4668C130.636 14.4668 131.137 14.5693 131.565 14.7744C131.994 14.9795 132.32 15.2575 132.543 15.6084C132.771 15.9548 132.885 16.3421 132.885 16.7705H131.606C131.606 16.5609 131.545 16.3581 131.422 16.1621C131.299 15.9661 131.119 15.8066 130.882 15.6836C130.649 15.556 130.376 15.4922 130.062 15.4922C129.729 15.4922 129.453 15.5446 129.234 15.6494C129.016 15.7497 128.854 15.8841 128.749 16.0527C128.649 16.2168 128.599 16.3945 128.599 16.5859C128.599 16.7819 128.644 16.946 128.735 17.0781C128.831 17.2057 129 17.3219 129.241 17.4268C129.487 17.5316 129.84 17.6341 130.301 17.7344C130.921 17.8757 131.424 18.042 131.812 18.2334C132.199 18.4248 132.486 18.6595 132.673 18.9375C132.864 19.2155 132.96 19.5527 132.96 19.9492C132.96 20.3776 132.841 20.7581 132.604 21.0908C132.368 21.4189 132.033 21.6764 131.6 21.8633C131.167 22.0456 130.665 22.1367 130.096 22.1367C129.467 22.1367 128.922 22.0251 128.462 21.8018C128.006 21.5739 127.66 21.2754 127.423 20.9062C127.186 20.5371 127.067 20.1429 127.067 19.7236H128.346C128.364 20.0518 128.46 20.3206 128.633 20.5303C128.806 20.7354 129.02 20.8835 129.275 20.9746C129.535 21.0658 129.809 21.1113 130.096 21.1113C130.428 21.1113 130.713 21.0658 130.95 20.9746C131.192 20.8789 131.374 20.7513 131.497 20.5918C131.62 20.4277 131.682 20.2432 131.682 20.0381C131.682 19.833 131.638 19.6553 131.552 19.5049C131.465 19.3545 131.299 19.2155 131.053 19.0879C130.807 18.9603 130.451 18.8486 129.986 18.7529ZM135.366 11.9102C135.603 11.9102 135.788 11.9785 135.92 12.1152C136.057 12.252 136.125 12.4251 136.125 12.6348C136.125 12.8398 136.057 13.0107 135.92 13.1475C135.788 13.2796 135.603 13.3457 135.366 13.3457C135.129 13.3457 134.945 13.2796 134.812 13.1475C134.685 13.0107 134.621 12.8398 134.621 12.6348C134.621 12.4251 134.685 12.252 134.812 12.1152C134.945 11.9785 135.129 11.9102 135.366 11.9102ZM134.717 22V14.6035H135.995V22H134.717ZM141.464 14.4668C143.045 14.4668 143.836 15.3623 143.836 17.1533V22H142.558V17.1396C142.558 16.5745 142.435 16.1644 142.188 15.9092C141.947 15.654 141.58 15.5264 141.088 15.5264C140.696 15.5264 140.343 15.6335 140.028 15.8477C139.718 16.0618 139.472 16.349 139.29 16.709V22H138.012V14.6035H139.222L139.263 15.5127C139.532 15.18 139.853 14.9225 140.227 14.7402C140.6 14.5579 141.013 14.4668 141.464 14.4668ZM151.704 14.6035V21.8428C151.704 22.4854 151.572 23.0368 151.308 23.4971C151.043 23.9619 150.674 24.3151 150.2 24.5566C149.731 24.7982 149.186 24.9189 148.566 24.9189C148.279 24.9189 147.965 24.8757 147.623 24.7891C147.281 24.7025 146.946 24.5635 146.618 24.3721C146.295 24.1807 146.03 23.9346 145.825 23.6338L146.488 22.8887C147.035 23.5586 147.696 23.8936 148.471 23.8936C149.077 23.8936 149.553 23.7204 149.899 23.374C150.25 23.0322 150.426 22.5423 150.426 21.9043V21.2686C149.924 21.8473 149.236 22.1367 148.361 22.1367C147.778 22.1367 147.265 21.9749 146.823 21.6514C146.386 21.3278 146.046 20.8835 145.805 20.3184C145.568 19.7487 145.449 19.1038 145.449 18.3838V18.2402C145.449 17.4928 145.568 16.8343 145.805 16.2646C146.042 15.695 146.381 15.2529 146.823 14.9385C147.265 14.624 147.783 14.4668 148.375 14.4668C149.277 14.4668 149.981 14.7835 150.487 15.417L150.542 14.6035H151.704ZM148.676 21.0703C149.469 21.0703 150.052 20.708 150.426 19.9834V16.5859C150.253 16.2578 150.022 16.0003 149.735 15.8135C149.448 15.6221 149.1 15.5264 148.689 15.5264C148.247 15.5264 147.878 15.6471 147.582 15.8887C147.29 16.1257 147.074 16.4492 146.933 16.8594C146.796 17.2695 146.728 17.7298 146.728 18.2402V18.3838C146.728 18.8942 146.796 19.3522 146.933 19.7578C147.074 20.1589 147.29 20.4779 147.582 20.7148C147.874 20.9518 148.238 21.0703 148.676 21.0703Z" fill="#505050"/>
<path d="M169 26C173.418 26 177 22.4183 177 18C177 13.5817 173.418 10 169 10C164.582 10 161 13.5817 161 18C161 22.4183 164.582 26 169 26Z" fill="#E86770"/>
<path d="M169.652 18L172.557 15.0954C172.602 15.0532 172.639 15.0022 172.664 14.9456C172.689 14.889 172.703 14.8279 172.704 14.7659C172.705 14.7039 172.693 14.6424 172.67 14.5849C172.647 14.5274 172.612 14.4752 172.569 14.4314C172.525 14.3876 172.473 14.353 172.415 14.3298C172.358 14.3066 172.296 14.2952 172.234 14.2963C172.172 14.2974 172.111 14.3109 172.054 14.3362C171.998 14.3614 171.947 14.3978 171.905 14.4431L169 17.3477L166.095 14.4431C166.053 14.3978 166.002 14.3614 165.946 14.3362C165.889 14.3109 165.828 14.2974 165.766 14.2963C165.704 14.2952 165.642 14.3066 165.585 14.3298C165.527 14.353 165.475 14.3876 165.431 14.4314C165.387 14.4752 165.353 14.5274 165.33 14.5849C165.307 14.6424 165.295 14.7039 165.296 14.7659C165.297 14.8279 165.311 14.889 165.336 14.9456C165.361 15.0022 165.398 15.0532 165.443 15.0954L168.348 18L165.443 20.9046C165.398 20.9469 165.361 20.9978 165.336 21.0545C165.311 21.1111 165.297 21.1722 165.296 21.2342C165.295 21.2961 165.307 21.3577 165.33 21.4152C165.353 21.4726 165.387 21.5248 165.431 21.5687C165.475 21.6125 165.527 21.647 165.585 21.6703C165.642 21.6935 165.704 21.7049 165.766 21.7038C165.828 21.7027 165.889 21.6891 165.946 21.6639C166.002 21.6387 166.053 21.6023 166.095 21.5569L169 18.6523L171.905 21.5569C171.947 21.6023 171.998 21.6387 172.054 21.6639C172.111 21.6891 172.172 21.7027 172.234 21.7038C172.296 21.7049 172.358 21.6935 172.415 21.6703C172.473 21.647 172.525 21.6125 172.569 21.5687C172.612 21.5248 172.647 21.4726 172.67 21.4152C172.693 21.3577 172.705 21.2961 172.704 21.2342C172.703 21.1722 172.689 21.1111 172.664 21.0545C172.639 20.9978 172.602 20.9469 172.557 20.9046L169.652 18Z" fill="white"/>
</svg>
