<svg width="14" height="14" viewBox="0 0 14 14" fill="none" xmlns="http://www.w3.org/2000/svg">
    <g clip-path="url(#5jflydx24a)">
        <path d="M8.678 1.559a1.93 1.93 0 0 0-3.356 0L.242 10.61a1.854 1.854 0 0 0 .016 1.86 1.904 1.904 0 0 0 1.661.946h10.162A1.903 1.903 0 0 0 14 11.543a1.855 1.855 0 0 0-.242-.932L8.677 1.559zM7 11.083a.583.583 0 1 1 0-1.166.583.583 0 0 1 0 1.166zm.583-2.916a.583.583 0 0 1-1.166 0v-3.5a.583.583 0 0 1 1.166 0v3.5z" fill="#FFD352"/>
    </g>
    <defs>
        <clipPath id="5jflydx24a">
            <path fill="#fff" d="M0 0h14v14H0z"/>
        </clipPath>
    </defs>
</svg>
